<?xml version="1.0" encoding="UTF-8"?>
<svg id="_圖層_1" data-name="圖層_1" xmlns="http://www.w3.org/2000/svg" version="1.1" viewBox="0 0 207.23 30.18">
  <!-- Generator: Adobe Illustrator 30.6.0, SVG Export Plug-In . SVG Version: 2.1.4 Build 109)  -->
  <defs>
    <style>
      .st0 {
        fill: #231815;
      }
    </style>
  </defs>
  <path class="st0" d="M8.65,28.61c-3.39.34-7.59.44-8.65.44.04-.44.69-.88,1.39-1.18,1.18-.49,1.31-2.65,1.31-4.51v-1.13c0-.83.12-1.57.12-2.4,0-.78-.12-1.42-.12-2.21,0-.2,0-.44.04-.69.94,0,1.47.15,1.79.29-.57-1.18-1.51-1.96-1.51-2.5,0-.64.08-1.08.08-1.57,0-1.76-.53-3.63-.53-5.39v-.98c0-.29.04-.59.04-1.03v-.25C2.61,1.62,1.18,1.57,1.1.88c1.06.05,2.73.15,3.79.25.49,0,.94-.15,1.55-.15,1.18,0,1.59.54,1.59,1.37,0,.64-.2,1.47-.29,2.2l-.2,1.47c0,1.32-.08,2.25-.08,3.58v1.62c0,.54.04,1.08.04,1.62,0,.59-.04,1.23-.08,2.06,1.63-1.76,3.43-3.77,4.98-5.49.08-.25.37-.73,1.18-1.86l1.51-.44h-.37l1.67-2.84c.16-.1.2-.34.2-.59,0-.88-1.1-.93-1.1-1.08,0-.49,1.18-.78,7.99-1.27.57.25.69.25.73.25-.04.2-.49.29-.98.39l-.2.1c-1.22.34-2.57,1.18-3.92,2.79l-4.81,5.73,2.04,3.63c2.53,4.56,6,12.2,11.05,13.52,1.31.15,1.88.24,1.88.34,0,.29-.69.39-1.71.39-8.32-.73-10.07-2.16-13.83-9.31-1.02-1.91-2.12-4.36-2.24-4.36-.24,0-.98.44-2.53,1.71h.2l-.16.29h-.24l-1.51,1.81c0,1.71.08,2.99.24,3.62l-.53.29h.24c.33.69.37,1.18.37,1.67v.98c0,.34-.04.73-.04,1.13,0,.83.08,1.32.37,1.71h.77l-.04.59ZM5.02,22.15c0-.15-.04-.29-.04-.44h-.94l.65.64-.45.1.77.98v-1.27ZM4.53,14.45l-.41.54h.98c-.16-.25-.2-.54-.2-.78h-.61l.41.25h-.16ZM5.14,5.98l.16-.1-.24-.29.2-.1c.08-.05.12-.05.12-.1h-.53s.08.1.2.2l-.65.15h.45v.39h.37l.33-.15h-.41ZM5.3,6.71h-.37l.37-.15h-.73c-.04.2-.08.29-.08.34,0,.1.04.15.04.15h.24l-.37.15h.77l.12-.49ZM5.59,23.37c-.57.25-.61.29-.98.64h.98s-.08-.15-.2-.34l.2-.29ZM5.1,11.42h.25l-.49-.15.24.59v-.44ZM5.02,16.27l.08.44h.69l.37-.44h-1.14ZM5.91,8.53h-.16l.08-.15h-.73l.2.64h.41l-.53.2h.78c0-.15-.04-.29-.04-.39v-.29ZM5.91,2.79h-.45l.57-.15h-.77l-.12.73h.24c-.24.05-.2.1-.24.15h.82c0-.1-.04-.2-.04-.34v-.39ZM5.26,22.93v.39h.37l.16-.25h-.33l.57-.15h-.77ZM6.32,26.41h-1.06v.49h1.06v-.49ZM8.08,16.32l-.2.24h-.37s.12.05.2.05c.08.05.16.05.25.05h.2l.2-.15-.29-.2ZM12.4,11.66h-.29s.12-.05.2-.1h-.45l-.16.39h.98l-.29-.29ZM13.38,11.91l.37-.49h-.98l.37.64-.29.44h.94l-.41-.59ZM13.17,15.43s-.04.1-.04.15c.04,0,.12-.05.2-.15h-.16ZM13.99,15.04h-.16l.12-.15c-.2.15-.45.39-.61.54h.86l-.2-.39ZM14.89,15.04s-.08-.1-.57-.15l.12-.29-.08-.15-.41.44h.37l-.04.15h.61ZM14.97,15.92l.33-.39h-1.02l.2.49-.29.44h1.06l-.29-.54ZM14.52,14.16h-.29l.12.29.16-.29ZM14.52,14.16q.08,0,.08-.05c-.08,0-.08.05-.08.05ZM14.89,15.04s.08.05.08.05l-.08-.05ZM16.52,17c.04-.15.04-.25.04-.34,0-.05-.04-.1-.08-.1h-.94c.04.15.16.44.2.64l-.04.34h1.02c-.08-.1-.12-.15-.29-.54h.08ZM16.52,5.73l.29.25-.37.29h.16c-.04.1-.04.15-.04.15,0,0,.2-.2.61-.69h-.65ZM17.29,19.45c-.2.15-.41.34-.65.44l.24.15.65-.59h-.24ZM17.13,19.06l.16.39.61-.39h-.77ZM17.29,4.26s.04,0,.04-.05l-.04.05ZM18.23,22.15l-.45.15h.37l.2.29c.08-.1.16-.15.24-.2l-.37-.25ZM18.68,4.12c.08-.29.08-.39.08-.44,0-.15-.53-.59-.65-.73-.08,0-.12-.05-.2-.1l.33.34s-.04.1-.04.15c0,.2.04.29.04.39v.2h.16l-.33.39h.77s-.24-.1-.57-.2h.41ZM18.35,22.59l-.24.2h.57l-.33-.2ZM19.7,24.69l.49-.49h-.86l.33.54-.45.49h.94l-.45-.54ZM19.37,23.13l.41.29-.41.29h1.06c0-.15.04-.24.04-.29,0,0-.04,0-.12-.29h-.98ZM21.25,25.92c0-.25.04-.54.04-.78h-.16l.45-.49h-.98l.16.29c-.16.34-.49,1.03-.49,1.22h1.1s-.16-.1-.53-.25h.41Z"/>
  <path class="st0" d="M49.8,25.09c-1.18,1.37-2.37,1.76-2.9,2.4l-1.06.44c-.86.34-1.71.88-2.53,1.27h-1.22c-1.75,0-3.67.2-5.34.2l-.2-.54h.49c-1.79-.34-5.38-1.71-6.97-3.14l-3.3-5.14c-.77-2.6-.9-5-1.26-5.73v-2.79l.57-1.37h-.04c.49-1.62.98-1.91,1.96-5.19l1.1-1.27,1.47-.69h-.16l1.84-1.81c.49-.25.86-.39,1.35-.83,1.51-.29,1.92-.49,2.24-.88h6.2l1.43.69c.08,0,.45.1.61.2h-.08c.49.15.9.29.9.29h-.2l1.39.74c.29.2.69.39,1.18.59l1.55,1.86h-.2c1.55.15,1.92,1.52,2.45,3.28l.37,1.27h-.45l1.47.44c0,.1.2.59.33.93h-.04l.24.59c.04,2.74.08,5.39.16,8.13-.86-.25-1.35-.39-1.71-.39h-.37c-.12,0-.2.05-.29.05l-.24,1.27,1.96-.83-.2,2.3c-.61.98-1.39,2.16-2.04,3.09h.04l-.45.59ZM28.71,13.33h-.24l.04-.05-.69.1-.16.29h1.06v-.34ZM28.22,10.78h-.12c.08.05.16.2.25.25h-.29l.12.54h.65l-.61-.78ZM28.18,20.63c.08,0,.12,0,.2-.1-.12.05-.2.1-.2.1ZM28.43,20.38c0-.64.86-2.84,1.1-3.04h-.49c-.04.2-.29.78-.73,3.04h.12s0,.1-.04.15l.33-.15h-.29ZM29.12,12.79c-.16,0-.29.1-.37.1h.24l-.49.39h.04l1.06.25-.49-.74ZM29.61,9.41c.12-.98.2-1.62.49-1.91h-.94l.29.64h-.08l-.12,1.47h.37v-.2ZM29.61,13.52l.04.05h.04l-.08-.05ZM30.63,5.63l.29-.34h-1.1l.12.49h.77s.08-.1.08-.15h-.16ZM45.88,22.93l1.47-3.97h-.04l.12-1.13c.08-.69.2-1.37.24-2.06,0-1.62-.29-3.58-.37-5.19h.04c-.49-1.42-.94-2.79-1.35-4.26h.12l-2.85-3.48h.24c-3.14-1.27-2.94-1.47-4-1.81-.9.29-1.35.49-1.84.74l-.94.44h.2l-2.49,2.5h.08l-.69,1.18c-.16.1-.53.29-1.02.39h.49c-.04.1-.2.74-.37,1.52h.04l-.16.93c-.41.64-.69,2.06-1.22,2.69h.16c-.2,2.55-.69,3.48-.69,5.14h-.16l.53.64.94,4.51h-.04c.49,1.71,1.35,1.91,2.65,3.58l.77.98h-.24c.24.1.49.29.73.39l.24.1h-.04c.65.25,2.2.74,2.53,1.13-.16.1-.29.2-.37.2h.49l-.08-.15s-.04,0-.04-.05c2.49-.78,5.02-1.71,6.12-4.61l1.26-.34h-.49ZM32.71,5.98c-.04-.39-.04-.69-.04-1.03h-1.1c0,.1.04.25.12.44h-.04v.64h.57s-.08-.05-.08-.05h.57ZM48.25,21.07h-.73l.16.54h.86s0-.2-.16-.39l-.12-.15ZM48.82,21.8h-1.1c0,.15,1.26.15,1.26.15l-.16-.15ZM47.92,22.1l-.04-.05s-.04,0-.04.05c0,0,.04.1.08.15h.49l.24-.15h-.73ZM49.76,23.37h.12c0-.34,0-.54.08-.69h-1.14c.08.44.24.64.49,1.03h-.12s.04.1.12.1h.77l-.33-.44ZM49.8,13.72c0-.15-.04-.29-.04-.44h-.57v.59h.49l-.61.2h.73v-.34ZM50.25,15.43l.2-.39c-.69.29-.94.49-1.1.69h1.02l-.12-.29ZM49.76,22.34s.08.05.12.05l-.41.2h.12s-.08.05-.08.05h.57c0-.1.08-.2.08-.29h-.41ZM50.82,16.41h-.82l.77.39h-.37l-.29.98h.69v-1.37ZM50.49,14.99l.16-.29h-.41l.61-.15h-.73v.44h.37l-.04.05s.08,0,.12-.05h-.08ZM51.39,11.66h-1.14l-.04.34h1.18v-.34Z"/>
  <path class="st0" d="M77.12,28.42l-.41-.39h-1.55l-.98-.34c-.45-.73-.61-1.03-.65-1.22h.04l-.12-.29h.16l-1.63-1.57-.08-.29h.29l-.82-.64c-.61-.64-1.02-1.03-3.1-3.97l-.2-.44h.08l-1.18-1.37c-1.71-1.96-2.45-3.58-2.65-3.82l-.16-.2h.24l-.86-.29c-.33-.93-.65-.59-1.39-2.55h.37c-.77-.15-1.71-1.32-1.71-1.62h.41l-.82-.34-.82.39h.41v15.68h-.12l.65,1.08c.29.54.41.78.41.78h-.2l1.31.44c.04.49.08.73.2.93h-7.91c0-.25,0-.29.04-.39l2.08-2.4h-.16c0-5.39.24-12.74.24-18.32,0-.59-.04-1.67-.08-2.3l-.16-2.45h.16l-.9-1.18h.37l-1.67-.29V.15c2.81,0,4,.54,7.06.73.29.83.53,1.27.65,1.42l.33.54h-.2l.77.64.29.49h-.33l.82.29.16.25c.25.39.45.83.82,1.47,0,.1-.04,0-.04.1v.34c-.65,0-1.14,0-1.88.15l-.24-.29h-.33s.08.25.08.25h-.33c.2.05.41.1.65.1l.57.1c.2-.1.77-.2,1.63-.2l.9.54.49.83c3.59,5.63,3.59,4.41,3.59,5.39h-.2l1.84,1.81.29.69h-.08l.9,1.13h-.04l1.02,1.03h-.04v.93l-1.35.2,2.12.29.12.1h-.12c.37.24.69.54.9.93l.2.34h-.08l.08.1v-2.16h2.37c.12,0,.86-.05,1.02-.05v7.69h-.45c.33.2.77.54.9.69h-.29l.98.29c-.08.34-.12.64-.12.83l-2.53.29ZM60.69,6.32c-.29,0-.57-.05-.82-.05h-.08v.2l.94-.15h-.04ZM60.24,7.79s.04.05.04.1h.24l-.29-.1ZM62.77,7.99h-.16c.08.1.08.2.08.49l.9-.15-.82-.34ZM64.85,9.41l-.57-.2.24-.05-.69-.59v-.15h-.16l.16.15v.44h-.57c.2.15.41.1.82.1l.2.1-.04.34h.61q.08,0,.08-.05l-.08-.1ZM63.83,8.28l-.24.05.24.1v-.15ZM65.5,11.51h-.86v.05h.86v-.05ZM64.85,11.96s-.08-.05-.08-.05t-.04.05h.12ZM64.85,11.96s.08.15.16.2h.37l.29-.2h-.82ZM65.91,11.07h-.65l.16.2c.08.15.2.25.2.29h.24l.04-.49ZM66.81,13.28h.12c0-.34,0-.59.08-.69h-1.1c.08.44.16.54.49,1.03h-.12s.04.1.12.1h.78l-.37-.44ZM66.81,12.25s.08-.05.12-.05h-.45s.25.1.69.1l.04.05s.04-.05.04-.1h-.45ZM66.48,12.54h.69s.04-.1.04-.2l-.73.2ZM69.46,17.69h-.24l.04-.05-.78.1v.24h.98v-.29ZM68.85,15.14l.16.15s-.08-.1-.08-.15h-.08ZM69.54,15.92c-.08-.05-.33-.29-.45-.54h-.24l.12.54h.57ZM70.03,17.15c-.12,0-.2.1-.29.1h.04l-.53.39,1.02.15s.08.05.08.05h.2l-.53-.69ZM71.78,19.84l.04-.2h-.53c.2.15.41.29.53.34.12-.05.16-.05.24-.15h-.29ZM73.05,22.05c-.12,0-.2.05-.24.05h.24v.15c-.08.2-.16.34-.16.34h.57s-.08-.05-.12-.05h.24l-.53-.49ZM74.31,21.56h-.2l-.12-.59h-1.1l.37.54.08.29h.94l.04-.25ZM73.05,21.95v.1h.2c.24,0,.41-.05.57-.1h-.77ZM78.31,17.3c-.73.15-2.33.29-2.81.29l-.33-8.82c0-.29-.12-.49-.16-.49s-.04.05-.04.1l-.24-5.83h.33l-.29-.2h.08l-.73-.39-.37-.34v-.64c.57,0,1.31,0,1.88-.1l.49.25c1.14,0,2.41.1,3.39.1l.2.29-.73.98h.16l-.37,8.08c-.08,1.57-.12,2.5-.12,3.28h-.12c.24.44.33.64.33.98-.24.34-.33,1.08-.45,1.86l-.08.59ZM75.21,23.42l.37.2c-.08.05-.16.2-.24.25h-.29l-.12.29h.25l-.33.15h.9c0-.1-.04-.15-.04-.2s.08-.1.08-.15h-.41c.08-.05.2-.1.2-.1h.65c0-.15.04-.29.04-.44h-1.06ZM76.06,22.59s-.04-.05-.04-.1c-.37.05-.57.15-.61.2.45,0,.86-.05,1.18-.1h-.53ZM76.15,22.24h.08-.08ZM77.37,7.64h.12c.12-.34.16-.49.16-.54h-1.06v.69h.9l-.12-.15ZM79.69,1.52s.04-.05.08-.05v.1l-.08-.05ZM79.78,27.29h.04s0,.05-.04.05v-.05Z"/>
  <path class="st0" d="M97.72,28.42c-.16.25-.29.64-.33.93-.41.05-1.35.15-1.84.25h.12s0,.15-.12.59h-1.18c.04-.25.08-.49.08-.69,0-.64-.24-1.08-.53-1.57l-.04-.2c-.12-.29-.24-.59-.24-.64h.24c-.29-.24-.73-.78-.86-1.18h.04c-.24-.59-.53-1.22-.94-1.67l-.53-2.16h.29c-.45-.34-.65-.64-.77-.88h.08l-.33-.39c-.16-.24-.37-.54-.41-.69h.08c-.37-.59-.77-1.47-.86-1.67-.12-.39-.25-.64-.49-1.13h.04c-.16-.2-.16-.44-.16-.64h.29c-.69-.39-.9-.69-1.06-1.08l-.77-1.71c-.12-.34-.33-.59-.41-.73l-.37-1.03h.04c-.2-.29-.41-.64-.41-.74h.08c-.08-.1-.16-.44-.2-.44v.1c-.16-.39-1.18-2.4-1.59-3.28h.04l-.33-.64h.04l-.33-.49c-.29-.49-.65-1.03-.94-1.23l-.2-.83h.04l-.78-1.76h.82c-1.67-.69-1.67-.39-1.67-.54l-.24-.24h.16l-1.26-.29c-.24,0-.82-.05-.94-.05l-.04-.73h2.2l.53.15,1.47-.15h5.34l.2.1,1.79-.15-.04.64-1.71.2h.53c0,.34-.2.78-.2,1.42,0,.34.04.69.16,1.08h-.08c.12.25.24.44.24.54h-.24c.61.54.65.64.9,1.67h-.08c.33.54.41.83.41.98h-.08c.24.49.24.64.29.78h-.08l.16.39h-.04c.24.39.41.69.41.73h-.16l1.06,1.57c.16.83.33,1.37.41,1.62h-.04s.24.44.29.59l.12.29c0,.25.04.44-.12.64.37.2.57.73.78,1.18l.29.73c.04.15.12.29.16.34l.16.34h-.04c.29,1.18.57,1.23.65,2.16h-.45c.82.29,1.1.88,1.43,1.76h-.04l.24.64h-.08c.37.44.41.54.45.64h-.04c.12.2.37.64.37.64l.24.54c0,.1.04.15.08.2.04-.15.12-.39.24-.59h-.08c0-.1.24-.88.41-1.23l.37-1.32c0-.1.33-.93.49-1.57l.16-.64c.24-.2.16-.39.49-.98h-.08c.04-.39.65-1.71.94-2.06h-.16c.04-.54.16-.98.41-1.42h-.12c0-.1.04-.2.33-.64h-.08c.04-.1.29-.73.29-.73h-.04c.08-.25.25-.49.37-.88l.29-.98.98-2.69h-.04c.04-.2.16-.34.2-.49h-.04c0-.1.08-.15.08-.25l.73-1.62h-.04l.12-.34h-.04l.12-.44h-.04s-.16-.1.41-.93h-.08s.04-.15.04-.44l-.16-.98h.29c-.24-.05-.69-.2-1.31-.29l.2-.83c1.59,0,1.26-.2,2.04-.2.24,0,.82.1.98.1h.16c.2-.05.49-.05.82-.05.16,0,.53,0,.82.05,0,0,.04,0,.16-.1.73,0,1.39-.05,2.41.25l.49.64c-.2.1-.24.15-.57.15-.86.29-.61.54-1.92.88h.12c-.12.1-.16.25-.2.25,0,0-.04-.05-.04-.1l-.65,1.27h.08c0,.15-.25.69-.41,1.08h.04c-.04.1-.37.93-.49,1.08l-.16.74-.45,1.03c-.08.2-.16.39-.53.98h.08s-.12.15-.65.39h.33l-.41.98-.49,1.52h.04c-.04.15-.08.05-.12.2l-.53,1.23c-.12.34-.08.59-.9.78h.49l-.45,1.96c-.29,1.77-.98,3.19-1.67,3.87h.12l-.16.44c-.37.44-.24.83-.69.93h.24c-.08.29-.16.39-.24.69l-.45.98h.08c0,.1-.04.2-.04.29l-.08.39c-.12.15-.61.93-.61,1.52.04,0,.49-.88.53-.88,0,.05-.2.54-1.02,2.25-.04.05-.08.1-.08.15,0,0,.04.05.04.1,0,.15-.08.39-.41.93h.04l-.45.78ZM89.44,11.56c-.16-.34-.41-.69-.57-1.03h.08c0-.25-.04-.59-.04-.83h-.57l-.04,1.86h1.14ZM94.42,22.54h.16v-.83h-.9l.08,1.32h1.06l-.41-.49ZM97.03,23.57l.04.05c.08,0,.12,0,.2-.05h-.24Z"/>
  <path class="st0" d="M133,25.09c-1.18,1.37-2.37,1.76-2.9,2.4l-1.06.44c-.86.34-1.71.88-2.53,1.27h-1.22c-1.75,0-3.67.2-5.34.2l-.2-.54h.49c-1.79-.34-5.38-1.71-6.97-3.14l-3.3-5.14c-.77-2.6-.9-5-1.26-5.73v-2.79l.57-1.37h-.04c.49-1.62.98-1.91,1.96-5.19l1.1-1.27,1.47-.69h-.16l1.84-1.81c.49-.25.86-.39,1.35-.83,1.51-.29,1.92-.49,2.24-.88h6.2l1.43.69c.08,0,.45.1.61.2h-.08c.49.15.9.29.9.29h-.2l1.39.74c.29.2.69.39,1.18.59l1.55,1.86h-.2c1.55.15,1.92,1.52,2.45,3.28l.37,1.27h-.45l1.47.44c0,.1.2.59.33.93h-.04l.25.59c.04,2.74.08,5.39.16,8.13-.86-.25-1.35-.39-1.71-.39h-.37c-.12,0-.2.05-.29.05l-.25,1.27,1.96-.83-.2,2.3c-.61.98-1.39,2.16-2.04,3.09h.04l-.45.59ZM111.91,13.33h-.25l.04-.05-.69.1-.16.29h1.06v-.34ZM111.42,10.78h-.12c.08.05.16.2.25.25h-.29l.12.54h.65l-.61-.78ZM111.38,20.63c.08,0,.12,0,.2-.1-.12.05-.2.1-.2.1ZM111.63,20.38c0-.64.86-2.84,1.1-3.04h-.49c-.04.2-.29.78-.73,3.04h.12s0,.1-.04.15l.33-.15h-.29ZM112.32,12.79c-.16,0-.29.1-.37.1h.24l-.49.39h.04l1.06.25-.49-.74ZM112.81,9.41c.12-.98.2-1.62.49-1.91h-.94l.29.64h-.08l-.12,1.47h.37v-.2ZM112.81,13.52l.04.05h.04l-.08-.05ZM113.83,5.63l.29-.34h-1.1l.12.49h.77s.08-.1.08-.15h-.16ZM129.08,22.93l1.47-3.97h-.04l.12-1.13c.08-.69.2-1.37.24-2.06,0-1.62-.29-3.58-.37-5.19h.04c-.49-1.42-.94-2.79-1.35-4.26h.12l-2.86-3.48h.25c-3.14-1.27-2.94-1.47-4-1.81-.9.29-1.35.49-1.83.74l-.94.44h.2l-2.49,2.5h.08l-.69,1.18c-.16.1-.53.29-1.02.39h.49c-.04.1-.2.74-.37,1.52h.04l-.16.93c-.41.64-.69,2.06-1.22,2.69h.16c-.2,2.55-.69,3.48-.69,5.14h-.16l.53.64.94,4.51h-.04c.49,1.71,1.35,1.91,2.65,3.58l.78.98h-.25c.25.1.49.29.73.39l.24.1h-.04c.65.25,2.2.74,2.53,1.13-.16.1-.29.2-.37.2h.49l-.08-.15s-.04,0-.04-.05c2.49-.78,5.02-1.71,6.12-4.61l1.26-.34h-.49ZM115.91,5.98c-.04-.39-.04-.69-.04-1.03h-1.1c0,.1.04.25.12.44h-.04v.64h.57s-.08-.05-.08-.05h.57ZM131.45,21.07h-.73l.16.54h.86s0-.2-.16-.39l-.12-.15ZM132.02,21.8h-1.1c0,.15,1.26.15,1.26.15l-.16-.15ZM131.12,22.1l-.04-.05s-.04,0-.04.05c0,0,.04.1.08.15h.49l.25-.15h-.73ZM132.96,23.37h.12c0-.34,0-.54.08-.69h-1.14c.08.44.24.64.49,1.03h-.12s.04.1.12.1h.77l-.33-.44ZM133,13.72c0-.15-.04-.29-.04-.44h-.57v.59h.49l-.61.2h.73v-.34ZM133.45,15.43l.2-.39c-.69.29-.94.49-1.1.69h1.02l-.12-.29ZM132.96,22.34s.08.05.12.05l-.41.2h.12s-.08.05-.08.05h.57c0-.1.08-.2.08-.29h-.41ZM134.02,16.41h-.82l.77.39h-.37l-.29.98h.69v-1.37ZM133.69,14.99l.16-.29h-.41l.61-.15h-.73v.44h.37l-.04.05s.08,0,.12-.05h-.08ZM134.59,11.66h-1.14l-.04.34h1.18v-.34Z"/>
  <path class="st0" d="M138.42,28.57l.16-.44,1.75-2.21h-.16c.08-1.08.2-2.16.33-3.23l-.16-6.76c-.08-3.23-.16-6.91-.16-10.19,0-1.42-.37-2.65-1.31-3.72l-.08-.98c2.53.15,4.04.25,4.81.25.82,0,2.16-.1,4.41-.25v.74c-1.96.29-2.2,1.03-3.06,1.22h.49c-.49,3.23-.25,6.81-.49,13.28l-.33.88.04,4.56c.2,1.42.49,2.84.69,4.26h-.33l.41.34c.41.34.69.59.69.59h3.38c.94-.44,1.63-.78,2.04-1.03l1.1-.54h-.2l.86-.98c1.47-.59-.29-.39,3.06-1.42-.08,1.08-.37,2.06-.73,2.99l-1.92,2.65h-15.29ZM142.13,19.89h-.9l.49.29h-.33l-.04.54h.78v-.83ZM142.79,16.17c-.16-.29-.25-.44-.37-.93h-.57s.29.25.53.39h-.29l.16.54h.53ZM142.83,12.4h.29l-.65-.15.2.64h.16v-.49ZM143.44,22.15l.57-.74h-1.1l.04.49-.37.44h1.06s-.08-.15-.08-.2h-.12Z"/>
  <path class="st0" d="M175.7,26.56c-.78,1.86-5.67,2.79-7.38,2.84l-.12-.05s-.12.05-.2.05c-1.63,0-2.77-.93-4.12-.93l-.49-.39c-.53-.05-.57-.93-.57-.93h.33c-1.22-.88-2.12-.69-3.3-2.11-.69-.59-2.49-3.92-2.69-6.52v-.25c0-.29-.04-.64-.2-1.23,0-.1.04-.05.04-.15v-.25s-.04-.1-.04-.29c0-.25.08-.64.08-.88l-.04-1.27.53-.98-.45-7.59h.04c-.12-.39-.2-.59-.2-.74,0-.05,0-.1.04-.15,0-1.08-.29-2.55-1.43-2.69l-.08-1.18h2.61l1.35.1h2l1.02.15c.33,0,.98-.1,1.02-.1,0,1.08-1.18,1.96-1.39,2.01h.2c-.08.29-.2.44-.37,1.76l-.12,1.08c0,.64-.04,1.86-.04,2.5v3.82l.12,1.27v1.57c0,1.37.57,3.87,1.1,5.34l1.51,3.48h-.25c.65.15,1.1.54,1.47.93,1.18,1.47,2.04,1.81,2.49,1.81,0,0-.04,0-.16-.05.04,0,.04-.05.12-.05h.33c.16,0,.49,0,.65.05.08,0,.29-.1.37-.1.24.05.37.05,1.14.05h.53c.33,0,1.63-.44,2.77-2.06h.16s.2-.69.45-1.37c.08-.25.37-.78,1.39-2.3l.08.49c.69-1.27,1.06-2.5,1.06-5.05,0-.15,0-.39-.04-.49l.16-.98-.24-1.81.08-8.72c0-1.52-.86-2.01-1.59-2.25l-.08-.88h6.69l.12.78c-.94.25-2,.78-2,2.94,0,.2.08.39.08.59,0,.05-.04.1-.04.15v8.82c0,.1,0,.2-.25.49h.16c.08.39.12.74.12,1.08l-.08.44c0,.29.04.69.04,1.13,0,.39,0,.78-.04,1.18l-.73,2.4c-.2.69-1.31,3.77-3.96,5.49h.25ZM159.14,4.66c-.69.05-.61.05-.61.15l-.33.15h.82l.12-.29ZM159.22,6.17l.33-.05h-.65l-.16.2h.98s0-.1.04-.15h-.53ZM159.51,12.94s-.04-.1-.04-.15v-.2h.57l-.86-.1-.41.1h.53l.2.39c.12,0,.29,0,.45-.05h-.45ZM160.08,5.19c-.2-.05-.37-.25-.49-.49l-.08-.2.24-.15c.12-.1.2-.15.2-.15h-.57l.12.29c-.08.05-.2.1-.37.15h.41v.54h.53ZM159.83,16.22c-.08-.05-.33-.44-.45-.78l.08.25h-.16l.25.54h.29ZM160.45,8.18h-.33l.29-.2h-.9c0,.25,0,.44-.04.49h.57l-.45.1c.25,0,.73.05.82.05.04,0,.04-.1.04-.2v-.25ZM160.36,2.06v.2s.2-.44.25-.44v.05h-1.02v.2h.78ZM159.71,17.34c-.08,0-.08.1-.08.29v.25c0,.1-.04.2-.04.29,0,.05,0,.1.2.1.12,0,.45-.88.45-.93h-.53ZM161.02,22.15c0-.2-.04-.25-.12-.34l-.08-1.22h-.61c-.12,0-.45.83-.45.88l-.04.34c.9,0,.94.05.98.05h-.45v.34h.61c-.69.1-.73.1-.73.15,0,0,.08.05.29.29l.61-.25v-.25ZM161.1,23.08l.08.25h.37c-.16.2-.29.29-.41.34h.69c0-.59.04-.54.08-.59h-.82ZM164.89,26.46l.08.93h1.22s-.08-.78-.08-.93h-1.22ZM167.71,27.63h-.9s-.16-.1-.16-.1t-.08.05l.29.64h.53l-.45.1h.9l-.12-.69ZM172.64,26.85h.25c.04-.1.08-.2.08-.29,0-.05-.04-.1-.08-.1h-.82l.08.44h.33l-.29.15h.73l-.29-.2ZM174.64,24.84l-.53.49h1.02s-.04-.15-.04-.2h-.29s.08-.05.12-.05l.41-.25h-.69ZM176.03,23.47l.61-.34h-.86l.04.2h.41l-.65.34h.9s-.08-.15-.08-.2h-.37ZM177.54,22.64l.12-.25-.12-.83h-.16l.12-.15h-1.1l.04.83c.08.1.16.34.2.34l-.12.49h1.14l-.12-.44ZM178.6,17h-1.22s.04.1.04.15l1.14.05s.04-.1.04-.2ZM178.68,18.52c-1.06,0-1.1-.05-1.14-.05,0,0-.04.05-.04.2.04.15.37.39.57.54v.2c.41,0,.49.05.49.05h-.04.29s-.04-.1-.08-.25c.45-.1.53-.39.53-.54l-.57-.15ZM178.84,13.03h-.9l.33.2h-.33s-.04.15-.04.2h.33l-.29.15h.9v-.54ZM179.33,5.93h-.61s.08.05.12.05h-.57c-.04.1-.08.25-.08.34,0,.2.12.34.49.39h.49l.16-.78ZM179.29,4.51h-.57l.16.1s.08.05.12.05h-.61c0,.1-.04.24-.04.34v.29h1.22l-.29-.78Z"/>
  <path class="st0" d="M197.6,28.86l.12.15c-1.83.34-3.34.59-5.1.59h-1.22c.24-1.22.57-1.47,1.14-1.96h-.24V9.02h.16c-.45-.54-.45-3.04-.53-4.07h.16l-1.79-2.21h-2.57v.2c-.49,0-1.26-.05-1.55-.05-.2.05-.53.1-.86.1l-1.35.54h.29c-.12.15-1.39,1.42-2.53,1.76.29-.78,1.18-2.25,1.18-2.25h-.08l.78-2.35c.41-.25,1.18-.25,1.55-.25.33.25.49.44.49.44h20.39l1.18-.78v.78c-.12.34-.69,1.32-.86,1.52l-.29.39h.16c-.08.59.04.49-.73,1.42h.16l-.2.69s-.04.2-.04.25v.25h-1.22l-.2-2.25c-1.75.25-3.59.49-5.34.69l-1.92.1h.61c-.04,5.73-.08,11.66-.08,17.39l.41,2.16c-.37,1.08-.41,2.01-.41,4.21h-.08l.49,1.18h-.08ZM193.85,21.31v-.49c0-.15-.04-.2-.04-.24h-.12l-.16.73.33.05s.08,0,.16-.05h-.16ZM193.81,20.38h-.08l-.04.15.12-.15ZM195.07,7.99h-.49l.49-.15v-.64h-1.1l.45.78-.29.05s-.08.05-.12.05h.24l-.16.25c0,.1-.08.24-.08.34h.37l-.61.29h.86c0-.2-.04-.39-.04-.54l.49-.05v-.39ZM194.18,12.15s.04-.15.12-.29l-.45.34h.33v-.05ZM194.42,5.34h.37c-.2-.05-.37-.1-.53-.2h-.12l.37.49-.08-.29ZM194.38,22.39v-.25l-.25.34h.04s0,.1.04.1v.05c.16-.1.33-.15.57-.25h-.41ZM194.26,8.04h.2l.04.05-.25-.05ZM195.77,10.93l-.2-.15.49-.39h-.04c-.08-.05-.12-.1-.16-.1l-.33.39.04.1-.08.05s-.08.1-.12.25h.2l-.41.39h-.53l-.33.39c.12-.05.25-.15.33-.25l.25.05v-.05h.12l.37-.15.41-.54ZM195.07,6.47h.29l-.57-.39.16.15.12.49h-.37c-.2.1-.33.39-.33.39h.77l-.08-.64ZM194.71,21.71h-.33v.44l.33-.44ZM194.42,7.99l.04.05.12-.05h-.16ZM194.5,5.63l.04.1h.04l-.08-.1ZM194.62,8.33s-.04.05-.04.05l-.08-.29h.12s-.04.15-.04.2h.49l-.45.05ZM194.54,5.73l.04.15.2.2-.24-.34ZM194.83,11.47l-.2.15h.33l-.12-.05.29-.05.04-.05h-.33ZM195.44,14.85h.57l-1.39-.15c.16.39.45,1.08.41,1.03h.41v-.88ZM195.24,18.86c-.12-.2-.2-.39-.2-.69,0-.1,0-.2.04-.34h-.37l.2,1.03h.33ZM196.01,10.09h-.9c.08.1.53-.05.73.2l.16-.2ZM195.85,9.31l.33-.29h-.33l-.04.29h.04l-.45.44.69-.44h-.25ZM195.77,19.45l-.29,1.13h.08l1.14-1.13h-.94ZM196.7,3.04h-.12l.94-1.18h-1.06c0,.54,0,1.03.04.98l-.61.74h1.02l-.2-.54ZM195.93,8.87l.16-.05c-.12,0-.2,0-.2.05,0,0,.16.1.33.1l.12-.1h-.41ZM196.21,8.97l-.04.05h.04v-.05ZM199.07,1.76h-.12l.73-.83h-.98l.24,1.03h.2l-.08-.2Z"/>
</svg>