<?xml version="1.0" encoding="UTF-8"?>
<svg xmlns="http://www.w3.org/2000/svg" width="233.20mm" height="251.00mm" viewBox="-12.00 -67.00 233.20 251.00">
  <g id="CUT" data-name="切割線">
    <path d="M221.20,0.00 L221.20,117.00" stroke="#000000" stroke-width="0.25" stroke-linecap="round" stroke-linejoin="round" fill="none" />
    <path d="M0.00,0.00 L-12.00,5.00 L-12.00,112.00 L0.00,117.00" stroke="#000000" stroke-width="0.25" stroke-linecap="round" stroke-linejoin="round" fill="none" />
    <path d="M0.00,0.00 L55.00,0.00" stroke="#000000" stroke-width="0.25" stroke-linecap="round" stroke-linejoin="round" fill="none" />
    <path d="M110.30,0.00 C110.30,-1.50 107.00,-0.90 107.00,-3.00" stroke="#000000" stroke-width="0.25" stroke-linecap="round" stroke-linejoin="round" fill="none" />
    <path d="M55.00,0.00 L58.00,-11.00 L58.00,-14.00 L107.00,-14.00 L107.00,-3.00" stroke="#000000" stroke-width="0.25" stroke-linecap="round" stroke-linejoin="round" fill="none" />
    <path d="M110.30,0.00 L110.30,-55.00" stroke="#000000" stroke-width="0.25" stroke-linecap="round" stroke-linejoin="round" fill="none" />
    <path d="M165.60,0.00 L165.60,-55.00" stroke="#000000" stroke-width="0.25" stroke-linecap="round" stroke-linejoin="round" fill="none" />
    <path d="M127.95,-55.00 L129.95,-56.50 L145.95,-56.50 L147.95,-55.00" stroke="#000000" stroke-width="0.25" stroke-linecap="round" stroke-linejoin="round" fill="none" />
    <path d="M110.30,-55.00 L111.10,-55.00 L111.10,-64.00 A3.00,3.00 0 0,1 114.10,-67.00 L161.80,-67.00 A3.00,3.00 0 0,1 164.80,-64.00 L164.80,-55.00 L165.60,-55.00" stroke="#000000" stroke-width="0.25" stroke-linecap="round" stroke-linejoin="round" fill="none" />
    <path d="M165.60,0.00 C165.60,-1.50 168.90,-0.90 168.90,-3.00" stroke="#000000" stroke-width="0.25" stroke-linecap="round" stroke-linejoin="round" fill="none" />
    <path d="M168.90,-3.00 L168.90,-14.00 L218.20,-14.00 L218.20,-3.00 L221.20,0.00" stroke="#000000" stroke-width="0.25" stroke-linecap="round" stroke-linejoin="round" fill="none" />
    <path d="M110.30,117.00 L165.60,117.00" stroke="#000000" stroke-width="0.25" stroke-linecap="round" stroke-linejoin="round" fill="none" />
    <path d="M55.00,117.00 C55.00,118.50 58.30,117.90 58.30,120.00" stroke="#000000" stroke-width="0.25" stroke-linecap="round" stroke-linejoin="round" fill="none" />
    <path d="M58.30,120.00 L58.30,131.00 L107.30,131.00 L107.30,120.00 L110.30,117.00" stroke="#000000" stroke-width="0.25" stroke-linecap="round" stroke-linejoin="round" fill="none" />
    <path d="M0.00,117.00 L0.00,172.00" stroke="#000000" stroke-width="0.25" stroke-linecap="round" stroke-linejoin="round" fill="none" />
    <path d="M55.00,117.00 L55.00,172.00" stroke="#000000" stroke-width="0.25" stroke-linecap="round" stroke-linejoin="round" fill="none" />
    <path d="M17.50,172.00 L19.50,173.50 L35.50,173.50 L37.50,172.00" stroke="#000000" stroke-width="0.25" stroke-linecap="round" stroke-linejoin="round" fill="none" />
    <path d="M0.00,172.00 L0.80,172.00 L0.80,181.00 A3.00,3.00 0 0,0 3.80,184.00 L51.20,184.00 A3.00,3.00 0 0,0 54.20,181.00 L54.20,172.00 L55.00,172.00" stroke="#000000" stroke-width="0.25" stroke-linecap="round" stroke-linejoin="round" fill="none" />
    <path d="M165.60,117.00 L168.60,120.00 L168.60,131.00 L218.20,131.00 L221.20,120.00 L221.20,117.00" stroke="#000000" stroke-width="0.25" stroke-linecap="round" stroke-linejoin="round" fill="none" />
  </g>
  <g id="CREASE" data-name="摺線">
    <path d="M55.00,0.00 L55.00,117.00" stroke="#00FF00" stroke-width="0.25" stroke-linecap="round" stroke-linejoin="round" fill="none" />
    <path d="M110.30,0.00 L110.30,117.00" stroke="#00FF00" stroke-width="0.25" stroke-linecap="round" stroke-linejoin="round" fill="none" />
    <path d="M165.60,0.00 L165.60,117.00" stroke="#00FF00" stroke-width="0.25" stroke-linecap="round" stroke-linejoin="round" fill="none" />
    <path d="M0.00,0.00 L0.00,117.00" stroke="#00FF00" stroke-width="0.25" stroke-linecap="round" stroke-linejoin="round" fill="none" />
    <path d="M55.00,0.00 L110.30,0.00" stroke="#00FF00" stroke-width="0.25" stroke-linecap="round" stroke-linejoin="round" fill="none" />
    <path d="M110.30,-55.00 L127.95,-55.00 M147.95,-55.00 L165.60,-55.00" stroke="#00FF00" stroke-width="0.25" stroke-linecap="round" stroke-linejoin="round" fill="none" />
    <path d="M110.30,0.00 L165.60,0.00" stroke="#00FF00" stroke-width="0.25" stroke-linecap="round" stroke-linejoin="round" fill="none" />
    <path d="M165.60,0.00 L221.20,0.00" stroke="#00FF00" stroke-width="0.25" stroke-linecap="round" stroke-linejoin="round" fill="none" />
    <path d="M55.00,117.00 L110.30,117.00" stroke="#00FF00" stroke-width="0.25" stroke-linecap="round" stroke-linejoin="round" fill="none" />
    <path d="M0.00,172.00 L17.50,172.00 M37.50,172.00 L55.00,172.00" stroke="#00FF00" stroke-width="0.25" stroke-linecap="round" stroke-linejoin="round" fill="none" />
    <path d="M0.00,117.00 L55.00,117.00" stroke="#00FF00" stroke-width="0.25" stroke-linecap="round" stroke-linejoin="round" fill="none" />
    <path d="M165.60,117.00 L221.20,117.00" stroke="#00FF00" stroke-width="0.25" stroke-linecap="round" stroke-linejoin="round" fill="none" />
  </g>
</svg>