0
SECTION
2
HEADER
9
$ACADVER
1
AC1009
0
ENDSEC
0
SECTION
2
TABLES
0
TABLE
2
LAYER
70
3
0
LAYER
2
CUT
70
0
62
7
6
CONTINUOUS
0
LAYER
2
CREASE
70
0
62
3
6
CONTINUOUS
0
LAYER
2
HALFCUT
70
0
62
2
6
CONTINUOUS
0
ENDTAB
0
ENDSEC
0
SECTION
2
ENTITIES
0
LINE
8
CREASE
10
55
20
0
30
0
11
55
21
117
31
0
0
LINE
8
CREASE
10
110.3
20
0
30
0
11
110.3
21
117
31
0
0
LINE
8
CREASE
10
165.6
20
0
30
0
11
165.6
21
117
31
0
0
LINE
8
CREASE
10
0
20
0
30
0
11
0
21
117
31
0
0
LINE
8
CUT
10
221.2
20
0
30
0
11
221.2
21
117
31
0
0
LINE
8
CUT
10
0
20
0
30
0
11
-12
21
5
31
0
0
LINE
8
CUT
10
-12
20
5
30
0
11
-12
21
112
31
0
0
LINE
8
CUT
10
-12
20
112
30
0
11
0
21
117
31
0
0
LINE
8
CUT
10
0
20
0
30
0
11
55
21
0
31
0
0
POLYLINE
8
CUT
66
1
10
0
20
0
30
0
70
0
0
VERTEX
8
CUT
10
110.3
20
0
30
0
0
VERTEX
8
CUT
10
110.1582
20
-0.4734
30
0
0
VERTEX
8
CUT
10
109.7844
20
-0.8063
30
0
0
VERTEX
8
CUT
10
108.65
20
-1.275
30
0
0
VERTEX
8
CUT
10
107.5156
20
-1.8562
30
0
0
VERTEX
8
CUT
10
107.1418
20
-2.3297
30
0
0
VERTEX
8
CUT
10
107
20
-3
30
0
0
SEQEND
0
LINE
8
CUT
10
55
20
0
30
0
11
58
21
-11
31
0
0
LINE
8
CUT
10
58
20
-11
30
0
11
58
21
-14
31
0
0
LINE
8
CUT
10
58
20
-14
30
0
11
107
21
-14
31
0
0
LINE
8
CUT
10
107
20
-14
30
0
11
107
21
-3
31
0
0
LINE
8
CREASE
10
55
20
0
30
0
11
110.3
21
0
31
0
0
LINE
8
CUT
10
110.3
20
0
30
0
11
110.3
21
-55
31
0
0
LINE
8
CUT
10
165.6
20
0
30
0
11
165.6
21
-55
31
0
0
LINE
8
CREASE
10
110.3
20
-55
30
0
11
127.95
21
-55
31
0
0
LINE
8
CREASE
10
147.95
20
-55
30
0
11
165.6
21
-55
31
0
0
LINE
8
CUT
10
127.95
20
-55
30
0
11
129.95
21
-56.5
31
0
0
LINE
8
CUT
10
129.95
20
-56.5
30
0
11
145.95
21
-56.5
31
0
0
LINE
8
CUT
10
145.95
20
-56.5
30
0
11
147.95
21
-55
31
0
0
LINE
8
CUT
10
110.3
20
-55
30
0
11
111.1
21
-55
31
0
0
LINE
8
CUT
10
111.1
20
-55
30
0
11
111.1
21
-64
31
0
0
ARC
8
CUT
10
114.1
20
-64
30
0
40
3
50
180
51
270
0
LINE
8
CUT
10
114.1
20
-67
30
0
11
161.8
21
-67
31
0
0
ARC
8
CUT
10
161.8
20
-64
30
0
40
3
50
270
51
0
0
LINE
8
CUT
10
164.8
20
-64
30
0
11
164.8
21
-55
31
0
0
LINE
8
CUT
10
164.8
20
-55
30
0
11
165.6
21
-55
31
0
0
LINE
8
CREASE
10
110.3
20
0
30
0
11
165.6
21
0
31
0
0
POLYLINE
8
CUT
66
1
10
0
20
0
30
0
70
0
0
VERTEX
8
CUT
10
165.6
20
0
30
0
0
VERTEX
8
CUT
10
165.7418
20
-0.4734
30
0
0
VERTEX
8
CUT
10
166.1156
20
-0.8063
30
0
0
VERTEX
8
CUT
10
167.25
20
-1.275
30
0
0
VERTEX
8
CUT
10
168.3844
20
-1.8562
30
0
0
VERTEX
8
CUT
10
168.7582
20
-2.3297
30
0
0
VERTEX
8
CUT
10
168.9
20
-3
30
0
0
SEQEND
0
LINE
8
CUT
10
168.9
20
-3
30
0
11
168.9
21
-14
31
0
0
LINE
8
CUT
10
168.9
20
-14
30
0
11
218.2
21
-14
31
0
0
LINE
8
CUT
10
218.2
20
-14
30
0
11
218.2
21
-3
31
0
0
LINE
8
CUT
10
218.2
20
-3
30
0
11
221.2
21
0
31
0
0
LINE
8
CREASE
10
165.6
20
0
30
0
11
221.2
21
0
31
0
0
LINE
8
CUT
10
110.3
20
117
30
0
11
165.6
21
117
31
0
0
POLYLINE
8
CUT
66
1
10
0
20
0
30
0
70
0
0
VERTEX
8
CUT
10
55
20
117
30
0
0
VERTEX
8
CUT
10
55.1418
20
117.4734
30
0
0
VERTEX
8
CUT
10
55.5156
20
117.8063
30
0
0
VERTEX
8
CUT
10
56.65
20
118.275
30
0
0
VERTEX
8
CUT
10
57.7844
20
118.8563
30
0
0
VERTEX
8
CUT
10
58.1582
20
119.3297
30
0
0
VERTEX
8
CUT
10
58.3
20
120
30
0
0
SEQEND
0
LINE
8
CUT
10
58.3
20
120
30
0
11
58.3
21
131
31
0
0
LINE
8
CUT
10
58.3
20
131
30
0
11
107.3
21
131
31
0
0
LINE
8
CUT
10
107.3
20
131
30
0
11
107.3
21
120
31
0
0
LINE
8
CUT
10
107.3
20
120
30
0
11
110.3
21
117
31
0
0
LINE
8
CREASE
10
55
20
117
30
0
11
110.3
21
117
31
0
0
LINE
8
CUT
10
0
20
117
30
0
11
0
21
172
31
0
0
LINE
8
CUT
10
55
20
117
30
0
11
55
21
172
31
0
0
LINE
8
CREASE
10
0
20
172
30
0
11
17.5
21
172
31
0
0
LINE
8
CREASE
10
37.5
20
172
30
0
11
55
21
172
31
0
0
LINE
8
CUT
10
17.5
20
172
30
0
11
19.5
21
173.5
31
0
0
LINE
8
CUT
10
19.5
20
173.5
30
0
11
35.5
21
173.5
31
0
0
LINE
8
CUT
10
35.5
20
173.5
30
0
11
37.5
21
172
31
0
0
LINE
8
CUT
10
0
20
172
30
0
11
0.8
21
172
31
0
0
LINE
8
CUT
10
0.8
20
172
30
0
11
0.8
21
181
31
0
0
ARC
8
CUT
10
3.8
20
181
30
0
40
3
50
90
51
180
0
LINE
8
CUT
10
3.8
20
184
30
0
11
51.2
21
184
31
0
0
ARC
8
CUT
10
51.2
20
181
30
0
40
3
50
0
51
90
0
LINE
8
CUT
10
54.2
20
181
30
0
11
54.2
21
172
31
0
0
LINE
8
CUT
10
54.2
20
172
30
0
11
55
21
172
31
0
0
LINE
8
CREASE
10
0
20
117
30
0
11
55
21
117
31
0
0
LINE
8
CUT
10
165.6
20
117
30
0
11
168.6
21
120
31
0
0
LINE
8
CUT
10
168.6
20
120
30
0
11
168.6
21
131
31
0
0
LINE
8
CUT
10
168.6
20
131
30
0
11
218.2
21
131
31
0
0
LINE
8
CUT
10
218.2
20
131
30
0
11
221.2
21
120
31
0
0
LINE
8
CUT
10
221.2
20
120
30
0
11
221.2
21
117
31
0
0
LINE
8
CREASE
10
165.6
20
117
30
0
11
221.2
21
117
31
0
0
ENDSEC
0
EOF