<?xml version="1.0" encoding="UTF-8"?>
<svg xmlns="http://www.w3.org/2000/svg" width="797.80mm" height="705.20mm" viewBox="0.00 0.00 797.80 705.20">
  <g id="CUT" data-name="切割線">
    <path d="M476.10,139.70 L471.10,139.70 M476.10,318.70 L471.10,318.70" stroke="#000000" stroke-width="0.25" stroke-linecap="round" stroke-linejoin="round" fill="none" />
    <path d="M412.40,184.86 L414.60,184.86 A2.00,2.00 0 0,1 416.60,186.86 L416.60,212.86 A2.00,2.00 0 0,1 414.60,214.86 L412.40,214.86 M412.40,243.54 L414.60,243.54 A2.00,2.00 0 0,1 416.60,245.54 L416.60,271.54 A2.00,2.00 0 0,1 414.60,273.54 L412.40,273.54" stroke="#000000" stroke-width="0.25" stroke-linecap="round" stroke-linejoin="round" fill="none" />
    <path d="M412.40,148.70 L404.90,148.70 L397.40,156.20 L397.40,302.20 L404.90,309.70 L412.40,309.70" stroke="#000000" stroke-width="0.25" stroke-linecap="round" stroke-linejoin="round" fill="none" />
    <path d="M719.10,139.70 L724.10,139.70 M719.10,318.70 L724.10,318.70" stroke="#000000" stroke-width="0.25" stroke-linecap="round" stroke-linejoin="round" fill="none" />
    <path d="M782.80,184.86 L780.60,184.86 A2.00,2.00 0 0,0 778.60,186.86 L778.60,212.86 A2.00,2.00 0 0,0 780.60,214.86 L782.80,214.86 M782.80,243.54 L780.60,243.54 A2.00,2.00 0 0,0 778.60,245.54 L778.60,271.54 A2.00,2.00 0 0,0 780.60,273.54 L782.80,273.54" stroke="#000000" stroke-width="0.25" stroke-linecap="round" stroke-linejoin="round" fill="none" />
    <path d="M782.80,148.70 L790.30,148.70 L797.80,156.20 L797.80,302.20 L790.30,309.70 L782.80,309.70" stroke="#000000" stroke-width="0.25" stroke-linecap="round" stroke-linejoin="round" fill="none" />
    <path d="M535.60,80.20 L535.60,79.20 M659.60,80.20 L659.60,79.20" stroke="#000000" stroke-width="0.25" stroke-linecap="round" stroke-linejoin="round" fill="none" />
    <path d="M582.60,15.00 L582.60,17.20 A2.00,2.00 0 0,0 584.60,19.20 L610.60,19.20 A2.00,2.00 0 0,0 612.60,17.20 L612.60,15.00" stroke="#000000" stroke-width="0.25" stroke-linecap="round" stroke-linejoin="round" fill="none" />
    <path d="M544.60,15.00 L544.60,7.50 L552.10,0.00 L643.10,0.00 L650.60,7.50 L650.60,15.00" stroke="#000000" stroke-width="0.25" stroke-linecap="round" stroke-linejoin="round" fill="none" />
    <path d="M535.60,378.20 L535.60,379.20 M659.60,378.20 L659.60,379.20" stroke="#000000" stroke-width="0.25" stroke-linecap="round" stroke-linejoin="round" fill="none" />
    <path d="M582.60,443.40 L582.60,441.20 A2.00,2.00 0 0,1 584.60,439.20 L610.60,439.20 A2.00,2.00 0 0,1 612.60,441.20 L612.60,443.40" stroke="#000000" stroke-width="0.25" stroke-linecap="round" stroke-linejoin="round" fill="none" />
    <path d="M544.60,443.40 L544.60,450.90 L552.10,458.40 L643.10,458.40 L650.60,450.90 L650.60,443.40" stroke="#000000" stroke-width="0.25" stroke-linecap="round" stroke-linejoin="round" fill="none" />
    <path d="M659.60,318.70 L684.89,343.99" stroke="#000000" stroke-width="0.25" stroke-linecap="round" stroke-linejoin="round" fill="none" />
    <path d="M659.60,378.20 L710.18,369.28 L719.10,318.70" stroke="#000000" stroke-width="0.25" stroke-linecap="round" stroke-linejoin="round" fill="none" />
    <path d="M719.10,318.70 L724.10,317.82 M724.10,314.20 L724.10,371.70 M753.45,371.70 L724.10,371.70 M743.18,371.70 L732.91,376.70 L732.91,391.70 L780.80,391.70 L780.80,313.24 L797.80,313.24 M763.30,313.24 L780.80,313.24 M763.30,316.20 L763.30,314.20 L763.30,313.24 M780.80,313.24 L780.80,297.20 L782.80,297.20" stroke="#000000" stroke-width="0.25" stroke-linecap="round" stroke-linejoin="round" fill="none" />
    <path d="M659.60,379.20 L659.60,381.70 A2.50,2.50 0 0,1 657.10,384.20 L654.60,384.20 L654.60,425.40 L657.60,428.40 L657.60,443.40" stroke="#000000" stroke-width="0.25" stroke-linecap="round" stroke-linejoin="round" fill="none" />
    <path d="M659.60,139.70 L684.89,114.41" stroke="#000000" stroke-width="0.25" stroke-linecap="round" stroke-linejoin="round" fill="none" />
    <path d="M659.60,80.20 L710.18,89.12 L719.10,139.70" stroke="#000000" stroke-width="0.25" stroke-linecap="round" stroke-linejoin="round" fill="none" />
    <path d="M719.10,139.70 L724.10,140.58 M724.10,144.20 L724.10,66.70 M751.45,86.70 L780.80,86.70 M761.72,86.70 L771.99,81.70 L771.99,66.70 L724.10,66.70 M780.80,86.70 L780.80,145.16 L797.80,145.16 M763.30,145.16 L780.80,145.16 M763.30,142.20 L763.30,144.20 L763.30,145.16 M780.80,145.16 L780.80,161.20 L782.80,161.20" stroke="#000000" stroke-width="0.25" stroke-linecap="round" stroke-linejoin="round" fill="none" />
    <path d="M659.60,79.20 L659.60,76.70 A2.50,2.50 0 0,0 657.10,74.20 L654.60,74.20 L654.60,33.00 L657.60,30.00 L657.60,15.00" stroke="#000000" stroke-width="0.25" stroke-linecap="round" stroke-linejoin="round" fill="none" />
    <path d="M535.60,318.70 L510.31,343.99" stroke="#000000" stroke-width="0.25" stroke-linecap="round" stroke-linejoin="round" fill="none" />
    <path d="M535.60,378.20 L485.02,369.28 L476.10,318.70" stroke="#000000" stroke-width="0.25" stroke-linecap="round" stroke-linejoin="round" fill="none" />
    <path d="M476.10,318.70 L471.10,317.82 M471.10,314.20 L471.10,391.70 M443.75,371.70 L414.40,371.70 M433.48,371.70 L423.21,376.70 L423.21,391.70 L471.10,391.70 M414.40,371.70 L414.40,313.24 L397.40,313.24 M431.90,313.24 L414.40,313.24 M431.90,316.20 L431.90,314.20 L431.90,313.24 M414.40,313.24 L414.40,297.20 L412.40,297.20" stroke="#000000" stroke-width="0.25" stroke-linecap="round" stroke-linejoin="round" fill="none" />
    <path d="M535.60,379.20 L535.60,381.70 A2.50,2.50 0 0,0 538.10,384.20 L540.60,384.20 L540.60,425.40 L537.60,428.40 L537.60,443.40" stroke="#000000" stroke-width="0.25" stroke-linecap="round" stroke-linejoin="round" fill="none" />
    <path d="M535.60,139.70 L510.31,114.41" stroke="#000000" stroke-width="0.25" stroke-linecap="round" stroke-linejoin="round" fill="none" />
    <path d="M535.60,80.20 L485.02,89.12 L476.10,139.70" stroke="#000000" stroke-width="0.25" stroke-linecap="round" stroke-linejoin="round" fill="none" />
    <path d="M476.10,139.70 L471.10,140.58 M471.10,144.20 L471.10,86.70 M441.75,86.70 L471.10,86.70 M452.02,86.70 L462.29,81.70 L462.29,66.70 L414.40,66.70 L414.40,145.16 L397.40,145.16 M431.90,145.16 L414.40,145.16 M431.90,142.20 L431.90,144.20 L431.90,145.16 M414.40,145.16 L414.40,161.20 L412.40,161.20" stroke="#000000" stroke-width="0.25" stroke-linecap="round" stroke-linejoin="round" fill="none" />
    <path d="M535.60,79.20 L535.60,76.70 A2.50,2.50 0 0,1 538.10,74.20 L540.60,74.20 L540.60,33.00 L537.60,30.00 L537.60,15.00" stroke="#000000" stroke-width="0.25" stroke-linecap="round" stroke-linejoin="round" fill="none" />
    <path d="M31.10,104.70 L15.00,104.70 M31.10,320.70 L15.00,320.70" stroke="#000000" stroke-width="0.25" stroke-linecap="round" stroke-linejoin="round" fill="none" />
    <path d="M15.00,114.90 L7.50,114.90 L0.00,122.40 L0.00,303.00 L7.50,310.50 L15.00,310.50" stroke="#000000" stroke-width="0.25" stroke-linecap="round" stroke-linejoin="round" fill="none" />
    <path d="M328.30,104.70 L344.40,104.70 M328.30,320.70 L344.40,320.70" stroke="#000000" stroke-width="0.25" stroke-linecap="round" stroke-linejoin="round" fill="none" />
    <path d="M344.40,114.90 L351.90,114.90 L359.40,122.40 L359.40,303.00 L351.90,310.50 L344.40,310.50" stroke="#000000" stroke-width="0.25" stroke-linecap="round" stroke-linejoin="round" fill="none" />
    <path d="M104.20,59.70 L104.20,15.00 M255.20,59.70 L255.20,15.00" stroke="#000000" stroke-width="0.25" stroke-linecap="round" stroke-linejoin="round" fill="none" />
    <path d="M104.20,12.50 L106.70,15.00 L104.20,17.50 M255.20,12.50 L252.70,15.00 L255.20,17.50" stroke="#000000" stroke-width="0.25" stroke-linecap="round" stroke-linejoin="round" fill="none" />
    <path d="M113.20,15.00 L113.20,7.50 L120.70,0.00 L238.70,0.00 L246.20,7.50 L246.20,15.00" stroke="#000000" stroke-width="0.25" stroke-linecap="round" stroke-linejoin="round" fill="none" />
    <path d="M104.20,365.70 L104.20,410.40 M255.20,365.70 L255.20,410.40" stroke="#000000" stroke-width="0.25" stroke-linecap="round" stroke-linejoin="round" fill="none" />
    <path d="M104.20,407.90 L106.70,410.40 L104.20,412.90 M255.20,407.90 L252.70,410.40 L255.20,412.90" stroke="#000000" stroke-width="0.25" stroke-linecap="round" stroke-linejoin="round" fill="none" />
    <path d="M113.20,410.40 L113.20,417.90 L120.70,425.40 L238.70,425.40 L246.20,417.90 L246.20,410.40" stroke="#000000" stroke-width="0.25" stroke-linecap="round" stroke-linejoin="round" fill="none" />
    <path d="M255.20,320.70 L273.66,339.16" stroke="#000000" stroke-width="0.25" stroke-linecap="round" stroke-linejoin="round" fill="none" />
    <path d="M292.13,357.63 L255.20,365.70" stroke="#000000" stroke-width="0.25" stroke-linecap="round" stroke-linejoin="round" fill="none" />
    <path d="M292.13,357.63 L298.42,321.94 A1.50,1.50 0 0,1 301.38,321.94 L306.00,348.17 A5.00,5.00 0 0,0 314.46,350.84 L328.30,337.00 L328.30,320.70" stroke="#000000" stroke-width="0.25" stroke-linecap="round" stroke-linejoin="round" fill="none" />
    <path d="M328.90,320.70 L328.90,318.70 L340.40,318.70 A2.00,2.00 0 0,0 342.40,316.70 L342.40,311.30 L351.10,311.30 L359.40,303.00" stroke="#000000" stroke-width="0.25" stroke-linecap="round" stroke-linejoin="round" fill="none" />
    <path d="M255.20,104.70 L273.66,86.24" stroke="#000000" stroke-width="0.25" stroke-linecap="round" stroke-linejoin="round" fill="none" />
    <path d="M292.13,67.77 L255.20,59.70" stroke="#000000" stroke-width="0.25" stroke-linecap="round" stroke-linejoin="round" fill="none" />
    <path d="M292.13,67.77 L298.42,103.46 A1.50,1.50 0 0,0 301.38,103.46 L306.00,77.23 A5.00,5.00 0 0,1 314.46,74.56 L328.30,88.40 L328.30,104.70" stroke="#000000" stroke-width="0.25" stroke-linecap="round" stroke-linejoin="round" fill="none" />
    <path d="M328.90,104.70 L328.90,106.70 L340.40,106.70 A2.00,2.00 0 0,1 342.40,108.70 L342.40,114.10 L351.10,114.10 L359.40,122.40" stroke="#000000" stroke-width="0.25" stroke-linecap="round" stroke-linejoin="round" fill="none" />
    <path d="M104.20,320.70 L85.74,339.16" stroke="#000000" stroke-width="0.25" stroke-linecap="round" stroke-linejoin="round" fill="none" />
    <path d="M67.27,357.63 L104.20,365.70" stroke="#000000" stroke-width="0.25" stroke-linecap="round" stroke-linejoin="round" fill="none" />
    <path d="M67.27,357.63 L60.98,321.94 A1.50,1.50 0 0,0 58.02,321.94 L53.40,348.17 A5.00,5.00 0 0,1 44.94,350.84 L31.10,337.00 L31.10,320.70" stroke="#000000" stroke-width="0.25" stroke-linecap="round" stroke-linejoin="round" fill="none" />
    <path d="M30.50,320.70 L30.50,318.70 L19.00,318.70 A2.00,2.00 0 0,1 17.00,316.70 L17.00,311.30 L8.30,311.30 L0.00,303.00" stroke="#000000" stroke-width="0.25" stroke-linecap="round" stroke-linejoin="round" fill="none" />
    <path d="M104.20,104.70 L85.74,86.24" stroke="#000000" stroke-width="0.25" stroke-linecap="round" stroke-linejoin="round" fill="none" />
    <path d="M67.27,67.77 L104.20,59.70" stroke="#000000" stroke-width="0.25" stroke-linecap="round" stroke-linejoin="round" fill="none" />
    <path d="M67.27,67.77 L60.98,103.46 A1.50,1.50 0 0,1 58.02,103.46 L53.40,77.23 A5.00,5.00 0 0,0 44.94,74.56 L31.10,88.40 L31.10,104.70" stroke="#000000" stroke-width="0.25" stroke-linecap="round" stroke-linejoin="round" fill="none" />
    <path d="M30.50,104.70 L30.50,106.70 L19.00,106.70 A2.00,2.00 0 0,0 17.00,108.70 L17.00,114.10 L8.30,114.10 L0.00,122.40" stroke="#000000" stroke-width="0.25" stroke-linecap="round" stroke-linejoin="round" fill="none" />
    <path d="M15.00,513.40 L0.00,528.40 L0.00,675.20 L15.00,690.20" stroke="#000000" stroke-width="0.25" stroke-linecap="round" stroke-linejoin="round" fill="none" />
    <path d="M136.80,513.40 L151.80,528.40 L151.80,675.20 L136.80,690.20" stroke="#000000" stroke-width="0.25" stroke-linecap="round" stroke-linejoin="round" fill="none" />
    <path d="M15.00,513.40 L30.00,498.40 L121.80,498.40 L136.80,513.40" stroke="#000000" stroke-width="0.25" stroke-linecap="round" stroke-linejoin="round" fill="none" />
    <path d="M15.00,690.20 L30.00,705.20 L121.80,705.20 L136.80,690.20" stroke="#000000" stroke-width="0.25" stroke-linecap="round" stroke-linejoin="round" fill="none" />
  </g>
  <g id="CREASE" data-name="摺線">
    <path d="M535.60,139.70 L535.60,318.70" stroke="#00FF00" stroke-width="0.25" stroke-linecap="round" stroke-linejoin="round" fill="none" />
    <path d="M476.10,139.70 L476.10,318.70 M471.10,144.20 L471.10,314.20" stroke="#00FF00" stroke-width="0.25" stroke-linecap="round" stroke-linejoin="round" fill="none" />
    <path d="M659.60,139.70 L659.60,318.70" stroke="#00FF00" stroke-width="0.25" stroke-linecap="round" stroke-linejoin="round" fill="none" />
    <path d="M719.10,139.70 L719.10,318.70 M724.10,144.20 L724.10,314.20" stroke="#00FF00" stroke-width="0.25" stroke-linecap="round" stroke-linejoin="round" fill="none" />
    <path d="M535.60,139.20 L659.60,139.20 M535.60,139.70 L535.60,139.20 M659.60,139.20 L659.60,139.70" stroke="#00FF00" stroke-width="0.25" stroke-linecap="round" stroke-linejoin="round" fill="none" />
    <path d="M535.60,79.20 L659.60,79.20 M540.60,74.20 L654.60,74.20" stroke="#00FF00" stroke-width="0.25" stroke-linecap="round" stroke-linejoin="round" fill="none" />
    <path d="M535.60,319.20 L659.60,319.20 M535.60,318.70 L535.60,319.20 M659.60,319.20 L659.60,318.70" stroke="#00FF00" stroke-width="0.25" stroke-linecap="round" stroke-linejoin="round" fill="none" />
    <path d="M535.60,379.20 L659.60,379.20 M540.60,384.20 L654.60,384.20" stroke="#00FF00" stroke-width="0.25" stroke-linecap="round" stroke-linejoin="round" fill="none" />
    <path d="M659.60,318.70 L719.10,318.70 M659.60,319.20 L659.60,378.20" stroke="#00FF00" stroke-width="0.25" stroke-linecap="round" stroke-linejoin="round" fill="none" />
    <path d="M684.89,343.99 L710.18,369.28" stroke="#00FF00" stroke-width="0.25" stroke-linecap="round" stroke-linejoin="round" fill="none" />
    <path d="M659.60,139.70 L719.10,139.70 M659.60,139.20 L659.60,80.20" stroke="#00FF00" stroke-width="0.25" stroke-linecap="round" stroke-linejoin="round" fill="none" />
    <path d="M684.89,114.41 L710.18,89.12" stroke="#00FF00" stroke-width="0.25" stroke-linecap="round" stroke-linejoin="round" fill="none" />
    <path d="M535.60,318.70 L476.10,318.70 M535.60,319.20 L535.60,378.20" stroke="#00FF00" stroke-width="0.25" stroke-linecap="round" stroke-linejoin="round" fill="none" />
    <path d="M510.31,343.99 L485.02,369.28" stroke="#00FF00" stroke-width="0.25" stroke-linecap="round" stroke-linejoin="round" fill="none" />
    <path d="M535.60,139.70 L476.10,139.70 M535.60,139.20 L535.60,80.20" stroke="#00FF00" stroke-width="0.25" stroke-linecap="round" stroke-linejoin="round" fill="none" />
    <path d="M510.31,114.41 L485.02,89.12" stroke="#00FF00" stroke-width="0.25" stroke-linecap="round" stroke-linejoin="round" fill="none" />
    <path d="M104.20,104.70 L104.20,320.70" stroke="#00FF00" stroke-width="0.25" stroke-linecap="round" stroke-linejoin="round" fill="none" />
    <path d="M59.20,104.70 L59.20,320.70" stroke="#00FF00" stroke-width="0.25" stroke-linecap="round" stroke-linejoin="round" fill="none" />
    <path d="M15.00,114.10 L15.00,159.10 M15.00,266.30 L15.00,311.30" stroke="#00FF00" stroke-width="0.25" stroke-linecap="round" stroke-linejoin="round" fill="none" />
    <path d="M255.20,104.70 L255.20,320.70" stroke="#00FF00" stroke-width="0.25" stroke-linecap="round" stroke-linejoin="round" fill="none" />
    <path d="M300.20,104.70 L300.20,320.70" stroke="#00FF00" stroke-width="0.25" stroke-linecap="round" stroke-linejoin="round" fill="none" />
    <path d="M344.40,114.10 L344.40,159.10 M344.40,266.30 L344.40,311.30" stroke="#00FF00" stroke-width="0.25" stroke-linecap="round" stroke-linejoin="round" fill="none" />
    <path d="M104.20,104.20 L255.20,104.20" stroke="#00FF00" stroke-width="0.25" stroke-linecap="round" stroke-linejoin="round" fill="none" />
    <path d="M104.20,59.20 L255.20,59.20" stroke="#00FF00" stroke-width="0.25" stroke-linecap="round" stroke-linejoin="round" fill="none" />
    <path d="M106.70,15.00 L141.70,15.00 M217.70,15.00 L252.70,15.00" stroke="#00FF00" stroke-width="0.25" stroke-linecap="round" stroke-linejoin="round" fill="none" />
    <path d="M104.20,321.20 L255.20,321.20" stroke="#00FF00" stroke-width="0.25" stroke-linecap="round" stroke-linejoin="round" fill="none" />
    <path d="M104.20,366.20 L255.20,366.20" stroke="#00FF00" stroke-width="0.25" stroke-linecap="round" stroke-linejoin="round" fill="none" />
    <path d="M106.70,410.40 L141.70,410.40 M217.70,410.40 L252.70,410.40" stroke="#00FF00" stroke-width="0.25" stroke-linecap="round" stroke-linejoin="round" fill="none" />
    <path d="M255.20,320.70 L328.30,320.70 M255.20,320.70 L255.20,365.70" stroke="#00FF00" stroke-width="0.25" stroke-linecap="round" stroke-linejoin="round" fill="none" />
    <path d="M273.66,339.16 L292.13,357.63" stroke="#00FF00" stroke-width="0.25" stroke-linecap="round" stroke-linejoin="round" fill="none" />
    <path d="M255.20,104.70 L328.30,104.70 M255.20,104.70 L255.20,59.70" stroke="#00FF00" stroke-width="0.25" stroke-linecap="round" stroke-linejoin="round" fill="none" />
    <path d="M273.66,86.24 L292.13,67.77" stroke="#00FF00" stroke-width="0.25" stroke-linecap="round" stroke-linejoin="round" fill="none" />
    <path d="M104.20,320.70 L31.10,320.70 M104.20,320.70 L104.20,365.70" stroke="#00FF00" stroke-width="0.25" stroke-linecap="round" stroke-linejoin="round" fill="none" />
    <path d="M85.74,339.16 L67.27,357.63" stroke="#00FF00" stroke-width="0.25" stroke-linecap="round" stroke-linejoin="round" fill="none" />
    <path d="M104.20,104.70 L31.10,104.70 M104.20,104.70 L104.20,59.70" stroke="#00FF00" stroke-width="0.25" stroke-linecap="round" stroke-linejoin="round" fill="none" />
    <path d="M85.74,86.24 L67.27,67.77" stroke="#00FF00" stroke-width="0.25" stroke-linecap="round" stroke-linejoin="round" fill="none" />
    <path d="M15.00,513.40 L15.00,690.20" stroke="#00FF00" stroke-width="0.25" stroke-linecap="round" stroke-linejoin="round" fill="none" />
    <path d="M136.80,513.40 L136.80,690.20" stroke="#00FF00" stroke-width="0.25" stroke-linecap="round" stroke-linejoin="round" fill="none" />
    <path d="M15.00,513.40 L136.80,513.40" stroke="#00FF00" stroke-width="0.25" stroke-linecap="round" stroke-linejoin="round" fill="none" />
    <path d="M15.00,690.20 L136.80,690.20" stroke="#00FF00" stroke-width="0.25" stroke-linecap="round" stroke-linejoin="round" fill="none" />
  </g>
  <g id="HALFCUT" data-name="半刀">
    <path d="M412.40,161.20 L412.40,184.86 M412.40,214.86 L412.40,243.54 M412.40,273.54 L412.40,297.20" stroke="#FFFF00" stroke-width="0.25" stroke-linecap="round" stroke-linejoin="round" fill="none" />
    <path d="M782.80,161.20 L782.80,184.86 M782.80,214.86 L782.80,243.54 M782.80,273.54 L782.80,297.20" stroke="#FFFF00" stroke-width="0.25" stroke-linecap="round" stroke-linejoin="round" fill="none" />
    <path d="M537.60,15.00 L582.60,15.00 M612.60,15.00 L657.60,15.00" stroke="#FFFF00" stroke-width="0.25" stroke-linecap="round" stroke-linejoin="round" fill="none" />
    <path d="M537.60,443.40 L582.60,443.40 M612.60,443.40 L657.60,443.40" stroke="#FFFF00" stroke-width="0.25" stroke-linecap="round" stroke-linejoin="round" fill="none" />
    <path d="M15.00,159.10 L15.00,266.30" stroke="#FFFF00" stroke-width="0.25" stroke-linecap="round" stroke-linejoin="round" fill="none" />
    <path d="M344.40,159.10 L344.40,266.30" stroke="#FFFF00" stroke-width="0.25" stroke-linecap="round" stroke-linejoin="round" fill="none" />
    <path d="M141.70,15.00 L217.70,15.00" stroke="#FFFF00" stroke-width="0.25" stroke-linecap="round" stroke-linejoin="round" fill="none" />
    <path d="M141.70,410.40 L217.70,410.40" stroke="#FFFF00" stroke-width="0.25" stroke-linecap="round" stroke-linejoin="round" fill="none" />
  </g>
</svg>