0
SECTION
2
HEADER
9
$ACADVER
1
AC1009
0
ENDSEC
0
SECTION
2
TABLES
0
TABLE
2
LAYER
70
3
0
LAYER
2
CUT
70
0
62
7
6
CONTINUOUS
0
LAYER
2
CREASE
70
0
62
3
6
CONTINUOUS
0
LAYER
2
HALFCUT
70
0
62
2
6
CONTINUOUS
0
ENDTAB
0
ENDSEC
0
SECTION
2
ENTITIES
0
LINE
8
CREASE
10
535.6
20
139.7
30
0
11
535.6
21
318.7
31
0
0
LINE
8
CUT
10
476.1
20
139.7
30
0
11
471.1
21
139.7
31
0
0
LINE
8
CUT
10
476.1
20
318.7
30
0
11
471.1
21
318.7
31
0
0
LINE
8
CREASE
10
476.1
20
139.7
30
0
11
476.1
21
318.7
31
0
0
LINE
8
CREASE
10
471.1
20
144.2
30
0
11
471.1
21
314.2
31
0
0
LINE
8
CUT
10
412.4
20
184.8615
30
0
11
414.6
21
184.8615
31
0
0
ARC
8
CUT
10
414.6
20
186.8615
30
0
40
2
50
270
51
0
0
LINE
8
CUT
10
416.6
20
186.8615
30
0
11
416.6
21
212.8615
31
0
0
ARC
8
CUT
10
414.6
20
212.8615
30
0
40
2
50
0
51
90
0
LINE
8
CUT
10
414.6
20
214.8615
30
0
11
412.4
21
214.8615
31
0
0
LINE
8
CUT
10
412.4
20
243.5385
30
0
11
414.6
21
243.5385
31
0
0
ARC
8
CUT
10
414.6
20
245.5385
30
0
40
2
50
270
51
0
0
LINE
8
CUT
10
416.6
20
245.5385
30
0
11
416.6
21
271.5385
31
0
0
ARC
8
CUT
10
414.6
20
271.5385
30
0
40
2
50
0
51
90
0
LINE
8
CUT
10
414.6
20
273.5385
30
0
11
412.4
21
273.5385
31
0
0
LINE
8
HALFCUT
10
412.4
20
161.2018
30
0
11
412.4
21
184.8615
31
0
0
LINE
8
HALFCUT
10
412.4
20
214.8615
30
0
11
412.4
21
243.5385
31
0
0
LINE
8
HALFCUT
10
412.4
20
273.5385
30
0
11
412.4
21
297.1982
31
0
0
LINE
8
CUT
10
412.4
20
148.7
30
0
11
404.9
21
148.7
31
0
0
LINE
8
CUT
10
404.9
20
148.7
30
0
11
397.4
21
156.2
31
0
0
LINE
8
CUT
10
397.4
20
156.2
30
0
11
397.4
21
302.2
31
0
0
LINE
8
CUT
10
397.4
20
302.2
30
0
11
404.9
21
309.7
31
0
0
LINE
8
CUT
10
404.9
20
309.7
30
0
11
412.4
21
309.7
31
0
0
LINE
8
CREASE
10
659.6
20
139.7
30
0
11
659.6
21
318.7
31
0
0
LINE
8
CUT
10
719.1
20
139.7
30
0
11
724.1
21
139.7
31
0
0
LINE
8
CUT
10
719.1
20
318.7
30
0
11
724.1
21
318.7
31
0
0
LINE
8
CREASE
10
719.1
20
139.7
30
0
11
719.1
21
318.7
31
0
0
LINE
8
CREASE
10
724.1
20
144.2
30
0
11
724.1
21
314.2
31
0
0
LINE
8
CUT
10
782.8
20
184.8615
30
0
11
780.6
21
184.8615
31
0
0
ARC
8
CUT
10
780.6
20
186.8615
30
0
40
2
50
180
51
270
0
LINE
8
CUT
10
778.6
20
186.8615
30
0
11
778.6
21
212.8615
31
0
0
ARC
8
CUT
10
780.6
20
212.8615
30
0
40
2
50
90
51
180
0
LINE
8
CUT
10
780.6
20
214.8615
30
0
11
782.8
21
214.8615
31
0
0
LINE
8
CUT
10
782.8
20
243.5385
30
0
11
780.6
21
243.5385
31
0
0
ARC
8
CUT
10
780.6
20
245.5385
30
0
40
2
50
180
51
270
0
LINE
8
CUT
10
778.6
20
245.5385
30
0
11
778.6
21
271.5385
31
0
0
ARC
8
CUT
10
780.6
20
271.5385
30
0
40
2
50
90
51
180
0
LINE
8
CUT
10
780.6
20
273.5385
30
0
11
782.8
21
273.5385
31
0
0
LINE
8
HALFCUT
10
782.8
20
161.2018
30
0
11
782.8
21
184.8615
31
0
0
LINE
8
HALFCUT
10
782.8
20
214.8615
30
0
11
782.8
21
243.5385
31
0
0
LINE
8
HALFCUT
10
782.8
20
273.5385
30
0
11
782.8
21
297.1982
31
0
0
LINE
8
CUT
10
782.8
20
148.7
30
0
11
790.3
21
148.7
31
0
0
LINE
8
CUT
10
790.3
20
148.7
30
0
11
797.8
21
156.2
31
0
0
LINE
8
CUT
10
797.8
20
156.2
30
0
11
797.8
21
302.2
31
0
0
LINE
8
CUT
10
797.8
20
302.2
30
0
11
790.3
21
309.7
31
0
0
LINE
8
CUT
10
790.3
20
309.7
30
0
11
782.8
21
309.7
31
0
0
LINE
8
CREASE
10
535.6
20
139.2
30
0
11
659.6
21
139.2
31
0
0
LINE
8
CREASE
10
535.6
20
139.7
30
0
11
535.6
21
139.2
31
0
0
LINE
8
CREASE
10
659.6
20
139.2
30
0
11
659.6
21
139.7
31
0
0
LINE
8
CUT
10
535.6
20
80.2
30
0
11
535.6
21
79.2
31
0
0
LINE
8
CUT
10
659.6
20
80.2
30
0
11
659.6
21
79.2
31
0
0
LINE
8
CREASE
10
535.6
20
79.2
30
0
11
659.6
21
79.2
31
0
0
LINE
8
CREASE
10
540.6
20
74.2
30
0
11
654.6
21
74.2
31
0
0
LINE
8
CUT
10
582.6
20
15
30
0
11
582.6
21
17.2
31
0
0
ARC
8
CUT
10
584.6
20
17.2
30
0
40
2
50
90
51
180
0
LINE
8
CUT
10
584.6
20
19.2
30
0
11
610.6
21
19.2
31
0
0
ARC
8
CUT
10
610.6
20
17.2
30
0
40
2
50
0
51
90
0
LINE
8
CUT
10
612.6
20
17.2
30
0
11
612.6
21
15
31
0
0
LINE
8
HALFCUT
10
537.6002
20
15
30
0
11
582.6
21
15
31
0
0
LINE
8
HALFCUT
10
612.6
20
15
30
0
11
657.5998
21
15
31
0
0
LINE
8
CUT
10
544.6
20
15
30
0
11
544.6
21
7.5
31
0
0
LINE
8
CUT
10
544.6
20
7.5
30
0
11
552.1
21
0
31
0
0
LINE
8
CUT
10
552.1
20
0
30
0
11
643.1
21
0
31
0
0
LINE
8
CUT
10
643.1
20
0
30
0
11
650.6
21
7.5
31
0
0
LINE
8
CUT
10
650.6
20
7.5
30
0
11
650.6
21
15
31
0
0
LINE
8
CREASE
10
535.6
20
319.2
30
0
11
659.6
21
319.2
31
0
0
LINE
8
CREASE
10
535.6
20
318.7
30
0
11
535.6
21
319.2
31
0
0
LINE
8
CREASE
10
659.6
20
319.2
30
0
11
659.6
21
318.7
31
0
0
LINE
8
CUT
10
535.6
20
378.2
30
0
11
535.6
21
379.2
31
0
0
LINE
8
CUT
10
659.6
20
378.2
30
0
11
659.6
21
379.2
31
0
0
LINE
8
CREASE
10
535.6
20
379.2
30
0
11
659.6
21
379.2
31
0
0
LINE
8
CREASE
10
540.6
20
384.2
30
0
11
654.6
21
384.2
31
0
0
LINE
8
CUT
10
582.6
20
443.4
30
0
11
582.6
21
441.2
31
0
0
ARC
8
CUT
10
584.6
20
441.2
30
0
40
2
50
180
51
270
0
LINE
8
CUT
10
584.6
20
439.2
30
0
11
610.6
21
439.2
31
0
0
ARC
8
CUT
10
610.6
20
441.2
30
0
40
2
50
270
51
0
0
LINE
8
CUT
10
612.6
20
441.2
30
0
11
612.6
21
443.4
31
0
0
LINE
8
HALFCUT
10
537.6002
20
443.4
30
0
11
582.6
21
443.4
31
0
0
LINE
8
HALFCUT
10
612.6
20
443.4
30
0
11
657.5998
21
443.4
31
0
0
LINE
8
CUT
10
544.6
20
443.4
30
0
11
544.6
21
450.9
31
0
0
LINE
8
CUT
10
544.6
20
450.9
30
0
11
552.1
21
458.4
31
0
0
LINE
8
CUT
10
552.1
20
458.4
30
0
11
643.1
21
458.4
31
0
0
LINE
8
CUT
10
643.1
20
458.4
30
0
11
650.6
21
450.9
31
0
0
LINE
8
CUT
10
650.6
20
450.9
30
0
11
650.6
21
443.4
31
0
0
LINE
8
CREASE
10
659.6
20
318.7
30
0
11
719.1
21
318.7
31
0
0
LINE
8
CREASE
10
659.6
20
319.2
30
0
11
659.6
21
378.2
31
0
0
LINE
8
CUT
10
659.6
20
318.7
30
0
11
684.8906
21
343.9906
31
0
0
LINE
8
CREASE
10
684.8906
20
343.9906
30
0
11
710.1812
21
369.2812
31
0
0
LINE
8
CUT
10
659.6
20
378.2
30
0
11
710.1812
21
369.2812
31
0
0
LINE
8
CUT
10
710.1812
20
369.2812
30
0
11
719.1
21
318.7
31
0
0
LINE
8
CUT
10
719.1
20
318.7
30
0
11
724.1
21
317.8181
31
0
0
LINE
8
CUT
10
724.1
20
314.1986
30
0
11
724.1
21
371.6978
31
0
0
LINE
8
CUT
10
753.4495
20
371.6978
30
0
11
724.1
21
371.6978
31
0
0
LINE
8
CUT
10
743.1801
20
371.6978
30
0
11
732.9072
21
376.6967
31
0
0
LINE
8
CUT
10
732.9072
20
376.6967
30
0
11
732.9072
21
391.6968
31
0
0
LINE
8
CUT
10
732.9072
20
391.6968
30
0
11
780.8
21
391.6968
31
0
0
LINE
8
CUT
10
780.8
20
391.6968
30
0
11
780.8
21
313.239
31
0
0
LINE
8
CUT
10
780.8
20
313.239
30
0
11
797.8
21
313.239
31
0
0
LINE
8
CUT
10
763.299
20
313.239
30
0
11
780.8
21
313.239
31
0
0
LINE
8
CUT
10
763.299
20
316.1988
30
0
11
763.299
21
314.1986
31
0
0
LINE
8
CUT
10
763.299
20
314.1986
30
0
11
763.299
21
313.239
31
0
0
LINE
8
CUT
10
780.8
20
313.239
30
0
11
780.8
21
297.1982
31
0
0
LINE
8
CUT
10
780.8
20
297.1982
30
0
11
782.8
21
297.1982
31
0
0
LINE
8
CUT
10
659.6
20
379.2
30
0
11
659.6
21
381.7
31
0
0
ARC
8
CUT
10
657.1
20
381.7
30
0
40
2.5
50
360
51
90.0275
0
LINE
8
CUT
10
657.0988
20
384.2
30
0
11
654.5976
21
384.2
31
0
0
LINE
8
CUT
10
654.5976
20
384.2
30
0
11
654.5976
21
425.3976
31
0
0
LINE
8
CUT
10
654.5976
20
425.3976
30
0
11
657.5998
21
428.3998
31
0
0
LINE
8
CUT
10
657.5998
20
428.3998
30
0
11
657.5998
21
443.3999
31
0
0
LINE
8
CREASE
10
659.6
20
139.7
30
0
11
719.1
21
139.7
31
0
0
LINE
8
CREASE
10
659.6
20
139.2
30
0
11
659.6
21
80.2
31
0
0
LINE
8
CUT
10
659.6
20
139.7
30
0
11
684.8906
21
114.4094
31
0
0
LINE
8
CREASE
10
684.8906
20
114.4094
30
0
11
710.1812
21
89.1188
31
0
0
LINE
8
CUT
10
659.6
20
80.2
30
0
11
710.1812
21
89.1188
31
0
0
LINE
8
CUT
10
710.1812
20
89.1188
30
0
11
719.1
21
139.7
31
0
0
LINE
8
CUT
10
719.1
20
139.7
30
0
11
724.1
21
140.5819
31
0
0
LINE
8
CUT
10
724.1
20
144.2014
30
0
11
724.1
21
66.7032
31
0
0
LINE
8
CUT
10
751.4492
20
86.7022
30
0
11
780.8
21
86.7022
31
0
0
LINE
8
CUT
10
761.7185
20
86.7022
30
0
11
771.9879
21
81.7033
31
0
0
LINE
8
CUT
10
771.9879
20
81.7033
30
0
11
771.9879
21
66.7032
31
0
0
LINE
8
CUT
10
771.9879
20
66.7032
30
0
11
724.1
21
66.7032
31
0
0
LINE
8
CUT
10
780.8
20
86.7022
30
0
11
780.8
21
145.161
31
0
0
LINE
8
CUT
10
780.8
20
145.161
30
0
11
797.8
21
145.161
31
0
0
LINE
8
CUT
10
763.299
20
145.161
30
0
11
780.8
21
145.161
31
0
0
LINE
8
CUT
10
763.299
20
142.2012
30
0
11
763.299
21
144.2014
31
0
0
LINE
8
CUT
10
763.299
20
144.2014
30
0
11
763.299
21
145.161
31
0
0
LINE
8
CUT
10
780.8
20
145.161
30
0
11
780.8
21
161.2018
31
0
0
LINE
8
CUT
10
780.8
20
161.2018
30
0
11
782.8
21
161.2018
31
0
0
LINE
8
CUT
10
659.6
20
79.2
30
0
11
659.6
21
76.7
31
0
0
ARC
8
CUT
10
657.1
20
76.7
30
0
40
2.5
50
269.9725
51
0
0
LINE
8
CUT
10
657.0988
20
74.2
30
0
11
654.5976
21
74.2
31
0
0
LINE
8
CUT
10
654.5976
20
74.2
30
0
11
654.5976
21
33.0024
31
0
0
LINE
8
CUT
10
654.5976
20
33.0024
30
0
11
657.5998
21
30.0002
31
0
0
LINE
8
CUT
10
657.5998
20
30.0002
30
0
11
657.5998
21
15.0001
31
0
0
LINE
8
CREASE
10
535.6
20
318.7
30
0
11
476.1
21
318.7
31
0
0
LINE
8
CREASE
10
535.6
20
319.2
30
0
11
535.6
21
378.2
31
0
0
LINE
8
CUT
10
535.6
20
318.7
30
0
11
510.3094
21
343.9906
31
0
0
LINE
8
CREASE
10
510.3094
20
343.9906
30
0
11
485.0188
21
369.2812
31
0
0
LINE
8
CUT
10
535.6
20
378.2
30
0
11
485.0188
21
369.2812
31
0
0
LINE
8
CUT
10
485.0188
20
369.2812
30
0
11
476.1
21
318.7
31
0
0
LINE
8
CUT
10
476.1
20
318.7
30
0
11
471.1
21
317.8181
31
0
0
LINE
8
CUT
10
471.1
20
314.1986
30
0
11
471.1
21
391.6968
31
0
0
LINE
8
CUT
10
443.7508
20
371.6978
30
0
11
414.4
21
371.6978
31
0
0
LINE
8
CUT
10
433.4815
20
371.6978
30
0
11
423.2121
21
376.6967
31
0
0
LINE
8
CUT
10
423.2121
20
376.6967
30
0
11
423.2121
21
391.6968
31
0
0
LINE
8
CUT
10
423.2121
20
391.6968
30
0
11
471.1
21
391.6968
31
0
0
LINE
8
CUT
10
414.4
20
371.6978
30
0
11
414.4
21
313.239
31
0
0
LINE
8
CUT
10
414.4
20
313.239
30
0
11
397.4
21
313.239
31
0
0
LINE
8
CUT
10
431.901
20
313.239
30
0
11
414.4
21
313.239
31
0
0
LINE
8
CUT
10
431.901
20
316.1988
30
0
11
431.901
21
314.1986
31
0
0
LINE
8
CUT
10
431.901
20
314.1986
30
0
11
431.901
21
313.239
31
0
0
LINE
8
CUT
10
414.4
20
313.239
30
0
11
414.4
21
297.1982
31
0
0
LINE
8
CUT
10
414.4
20
297.1982
30
0
11
412.4
21
297.1982
31
0
0
LINE
8
CUT
10
535.6
20
379.2
30
0
11
535.6
21
381.7
31
0
0
ARC
8
CUT
10
538.1
20
381.7
30
0
40
2.5
50
89.9725
51
180
0
LINE
8
CUT
10
538.1012
20
384.2
30
0
11
540.6024
21
384.2
31
0
0
LINE
8
CUT
10
540.6024
20
384.2
30
0
11
540.6024
21
425.3976
31
0
0
LINE
8
CUT
10
540.6024
20
425.3976
30
0
11
537.6002
21
428.3998
31
0
0
LINE
8
CUT
10
537.6002
20
428.3998
30
0
11
537.6002
21
443.3999
31
0
0
LINE
8
CREASE
10
535.6
20
139.7
30
0
11
476.1
21
139.7
31
0
0
LINE
8
CREASE
10
535.6
20
139.2
30
0
11
535.6
21
80.2
31
0
0
LINE
8
CUT
10
535.6
20
139.7
30
0
11
510.3094
21
114.4094
31
0
0
LINE
8
CREASE
10
510.3094
20
114.4094
30
0
11
485.0188
21
89.1188
31
0
0
LINE
8
CUT
10
535.6
20
80.2
30
0
11
485.0188
21
89.1188
31
0
0
LINE
8
CUT
10
485.0188
20
89.1188
30
0
11
476.1
21
139.7
31
0
0
LINE
8
CUT
10
476.1
20
139.7
30
0
11
471.1
21
140.5819
31
0
0
LINE
8
CUT
10
471.1
20
144.2014
30
0
11
471.1
21
86.7022
31
0
0
LINE
8
CUT
10
441.7505
20
86.7022
30
0
11
471.1
21
86.7022
31
0
0
LINE
8
CUT
10
452.0199
20
86.7022
30
0
11
462.2928
21
81.7033
31
0
0
LINE
8
CUT
10
462.2928
20
81.7033
30
0
11
462.2928
21
66.7032
31
0
0
LINE
8
CUT
10
462.2928
20
66.7032
30
0
11
414.4
21
66.7032
31
0
0
LINE
8
CUT
10
414.4
20
66.7032
30
0
11
414.4
21
145.161
31
0
0
LINE
8
CUT
10
414.4
20
145.161
30
0
11
397.4
21
145.161
31
0
0
LINE
8
CUT
10
431.901
20
145.161
30
0
11
414.4
21
145.161
31
0
0
LINE
8
CUT
10
431.901
20
142.2012
30
0
11
431.901
21
144.2014
31
0
0
LINE
8
CUT
10
431.901
20
144.2014
30
0
11
431.901
21
145.161
31
0
0
LINE
8
CUT
10
414.4
20
145.161
30
0
11
414.4
21
161.2018
31
0
0
LINE
8
CUT
10
414.4
20
161.2018
30
0
11
412.4
21
161.2018
31
0
0
LINE
8
CUT
10
535.6
20
79.2
30
0
11
535.6
21
76.7
31
0
0
ARC
8
CUT
10
538.1
20
76.7
30
0
40
2.5
50
180
51
270.0275
0
LINE
8
CUT
10
538.1012
20
74.2
30
0
11
540.6024
21
74.2
31
0
0
LINE
8
CUT
10
540.6024
20
74.2
30
0
11
540.6024
21
33.0024
31
0
0
LINE
8
CUT
10
540.6024
20
33.0024
30
0
11
537.6002
21
30.0002
31
0
0
LINE
8
CUT
10
537.6002
20
30.0002
30
0
11
537.6002
21
15.0001
31
0
0
ENDSEC
0
EOF