0
SECTION
2
HEADER
9
$ACADVER
1
AC1009
0
ENDSEC
0
SECTION
2
TABLES
0
TABLE
2
LAYER
70
3
0
LAYER
2
CUT
70
0
62
7
6
CONTINUOUS
0
LAYER
2
CREASE
70
0
62
3
6
CONTINUOUS
0
LAYER
2
HALFCUT
70
0
62
2
6
CONTINUOUS
0
ENDTAB
0
ENDSEC
0
SECTION
2
ENTITIES
0
LINE
8
CREASE
10
104.2
20
104.7
30
0
11
104.2
21
320.7
31
0
0
LINE
8
CUT
10
31.098
20
104.7
30
0
11
15
21
104.7
31
0
0
LINE
8
CUT
10
31.098
20
320.7
30
0
11
15
21
320.7
31
0
0
LINE
8
CREASE
10
59.2
20
104.7
30
0
11
59.2
21
320.7
31
0
0
LINE
8
CREASE
10
15
20
114.098
30
0
11
15
21
159.098
31
0
0
LINE
8
CREASE
10
15
20
266.302
30
0
11
15
21
311.302
31
0
0
LINE
8
HALFCUT
10
15
20
159.098
30
0
11
15
21
266.302
31
0
0
LINE
8
CUT
10
15
20
114.898
30
0
11
7.5
21
114.898
31
0
0
LINE
8
CUT
10
7.5
20
114.898
30
0
11
0
21
122.398
31
0
0
LINE
8
CUT
10
0
20
122.398
30
0
11
0
21
303.002
31
0
0
LINE
8
CUT
10
0
20
303.002
30
0
11
7.5
21
310.502
31
0
0
LINE
8
CUT
10
7.5
20
310.502
30
0
11
15
21
310.502
31
0
0
LINE
8
CREASE
10
255.2
20
104.7
30
0
11
255.2
21
320.7
31
0
0
LINE
8
CUT
10
328.302
20
104.7
30
0
11
344.4
21
104.7
31
0
0
LINE
8
CUT
10
328.302
20
320.7
30
0
11
344.4
21
320.7
31
0
0
LINE
8
CREASE
10
300.2
20
104.7
30
0
11
300.2
21
320.7
31
0
0
LINE
8
CREASE
10
344.4
20
114.098
30
0
11
344.4
21
159.098
31
0
0
LINE
8
CREASE
10
344.4
20
266.302
30
0
11
344.4
21
311.302
31
0
0
LINE
8
HALFCUT
10
344.4
20
159.098
30
0
11
344.4
21
266.302
31
0
0
LINE
8
CUT
10
344.4
20
114.898
30
0
11
351.9
21
114.898
31
0
0
LINE
8
CUT
10
351.9
20
114.898
30
0
11
359.4
21
122.398
31
0
0
LINE
8
CUT
10
359.4
20
122.398
30
0
11
359.4
21
303.002
31
0
0
LINE
8
CUT
10
359.4
20
303.002
30
0
11
351.9
21
310.502
31
0
0
LINE
8
CUT
10
351.9
20
310.502
30
0
11
344.4
21
310.502
31
0
0
LINE
8
CREASE
10
104.2
20
104.2
30
0
11
255.2
21
104.2
31
0
0
LINE
8
CUT
10
104.2
20
59.7
30
0
11
104.2
21
15
31
0
0
LINE
8
CUT
10
255.2
20
59.7
30
0
11
255.2
21
15
31
0
0
LINE
8
CREASE
10
104.2
20
59.2
30
0
11
255.2
21
59.2
31
0
0
LINE
8
CREASE
10
106.7
20
15
30
0
11
141.7
21
15
31
0
0
LINE
8
CREASE
10
217.7
20
15
30
0
11
252.7
21
15
31
0
0
LINE
8
HALFCUT
10
141.7
20
15
30
0
11
217.7
21
15
31
0
0
LINE
8
CUT
10
104.2
20
12.5
30
0
11
106.7
21
15
31
0
0
LINE
8
CUT
10
106.7
20
15
30
0
11
104.2
21
17.5
31
0
0
LINE
8
CUT
10
255.2
20
12.5
30
0
11
252.7
21
15
31
0
0
LINE
8
CUT
10
252.7
20
15
30
0
11
255.2
21
17.5
31
0
0
LINE
8
CUT
10
113.2
20
15
30
0
11
113.2
21
7.5
31
0
0
LINE
8
CUT
10
113.2
20
7.5
30
0
11
120.7
21
0
31
0
0
LINE
8
CUT
10
120.7
20
0
30
0
11
238.7
21
0
31
0
0
LINE
8
CUT
10
238.7
20
0
30
0
11
246.2
21
7.5
31
0
0
LINE
8
CUT
10
246.2
20
7.5
30
0
11
246.2
21
15
31
0
0
LINE
8
CREASE
10
104.2
20
321.2
30
0
11
255.2
21
321.2
31
0
0
LINE
8
CUT
10
104.2
20
365.7
30
0
11
104.2
21
410.4
31
0
0
LINE
8
CUT
10
255.2
20
365.7
30
0
11
255.2
21
410.4
31
0
0
LINE
8
CREASE
10
104.2
20
366.2
30
0
11
255.2
21
366.2
31
0
0
LINE
8
CREASE
10
106.7
20
410.4
30
0
11
141.7
21
410.4
31
0
0
LINE
8
CREASE
10
217.7
20
410.4
30
0
11
252.7
21
410.4
31
0
0
LINE
8
HALFCUT
10
141.7
20
410.4
30
0
11
217.7
21
410.4
31
0
0
LINE
8
CUT
10
104.2
20
407.9
30
0
11
106.7
21
410.4
31
0
0
LINE
8
CUT
10
106.7
20
410.4
30
0
11
104.2
21
412.9
31
0
0
LINE
8
CUT
10
255.2
20
407.9
30
0
11
252.7
21
410.4
31
0
0
LINE
8
CUT
10
252.7
20
410.4
30
0
11
255.2
21
412.9
31
0
0
LINE
8
CUT
10
113.2
20
410.4
30
0
11
113.2
21
417.9
31
0
0
LINE
8
CUT
10
113.2
20
417.9
30
0
11
120.7
21
425.4
31
0
0
LINE
8
CUT
10
120.7
20
425.4
30
0
11
238.7
21
425.4
31
0
0
LINE
8
CUT
10
238.7
20
425.4
30
0
11
246.2
21
417.9
31
0
0
LINE
8
CUT
10
246.2
20
417.9
30
0
11
246.2
21
410.4
31
0
0
LINE
8
CREASE
10
255.2
20
320.7
30
0
11
328.302
21
320.7
31
0
0
LINE
8
CREASE
10
255.2
20
320.7
30
0
11
255.2
21
365.7
31
0
0
LINE
8
CUT
10
255.2
20
320.7
30
0
11
273.6648
21
339.1648
31
0
0
LINE
8
CREASE
10
273.6648
20
339.1648
30
0
11
292.1297
21
357.6297
31
0
0
LINE
8
CUT
10
292.1297
20
357.6297
30
0
11
255.2
21
365.7
31
0
0
LINE
8
CUT
10
292.1297
20
357.6297
30
0
11
298.4228
21
321.9395
31
0
0
ARC
8
CUT
10
299.9
20
322.2
30
0
40
1.5
50
190
51
350
0
LINE
8
CUT
10
301.3772
20
321.9395
30
0
11
306.0025
21
348.1707
31
0
0
ARC
8
CUT
10
310.9265
20
347.3024
30
0
40
5
50
45
51
170
0
LINE
8
CUT
10
314.462
20
350.838
30
0
11
328.302
21
336.998
31
0
0
LINE
8
CUT
10
328.302
20
336.998
30
0
11
328.302
21
320.7
31
0
0
LINE
8
CUT
10
328.9005
20
320.7
30
0
11
328.9005
21
318.7
31
0
0
LINE
8
CUT
10
328.9005
20
318.7
30
0
11
340.4012
21
318.7
31
0
0
ARC
8
CUT
10
340.4013
20
316.7
30
0
40
2
50
360
51
90.0029
0
LINE
8
CUT
10
342.4013
20
316.7
30
0
11
342.4013
21
311.302
31
0
0
LINE
8
CUT
10
342.4013
20
311.302
30
0
11
351.1009
21
311.302
31
0
0
LINE
8
CUT
10
351.1009
20
311.302
30
0
11
359.4
21
303.002
31
0
0
LINE
8
CREASE
10
255.2
20
104.7
30
0
11
328.302
21
104.7
31
0
0
LINE
8
CREASE
10
255.2
20
104.7
30
0
11
255.2
21
59.7
31
0
0
LINE
8
CUT
10
255.2
20
104.7
30
0
11
273.6648
21
86.2352
31
0
0
LINE
8
CREASE
10
273.6648
20
86.2352
30
0
11
292.1297
21
67.7703
31
0
0
LINE
8
CUT
10
292.1297
20
67.7703
30
0
11
255.2
21
59.7
31
0
0
LINE
8
CUT
10
292.1297
20
67.7703
30
0
11
298.4228
21
103.4605
31
0
0
ARC
8
CUT
10
299.9
20
103.2
30
0
40
1.5
50
10
51
170
0
LINE
8
CUT
10
301.3772
20
103.4605
30
0
11
306.0025
21
77.2293
31
0
0
ARC
8
CUT
10
310.9265
20
78.0976
30
0
40
5
50
190
51
315
0
LINE
8
CUT
10
314.462
20
74.562
30
0
11
328.302
21
88.402
31
0
0
LINE
8
CUT
10
328.302
20
88.402
30
0
11
328.302
21
104.7
31
0
0
LINE
8
CUT
10
328.9005
20
104.7
30
0
11
328.9005
21
106.7
31
0
0
LINE
8
CUT
10
328.9005
20
106.7
30
0
11
340.4012
21
106.7
31
0
0
ARC
8
CUT
10
340.4013
20
108.7
30
0
40
2
50
269.9971
51
0
0
LINE
8
CUT
10
342.4013
20
108.7
30
0
11
342.4013
21
114.098
31
0
0
LINE
8
CUT
10
342.4013
20
114.098
30
0
11
351.1009
21
114.098
31
0
0
LINE
8
CUT
10
351.1009
20
114.098
30
0
11
359.4
21
122.398
31
0
0
LINE
8
CREASE
10
104.2
20
320.7
30
0
11
31.098
21
320.7
31
0
0
LINE
8
CREASE
10
104.2
20
320.7
30
0
11
104.2
21
365.7
31
0
0
LINE
8
CUT
10
104.2
20
320.7
30
0
11
85.7352
21
339.1648
31
0
0
LINE
8
CREASE
10
85.7352
20
339.1648
30
0
11
67.2703
21
357.6297
31
0
0
LINE
8
CUT
10
67.2703
20
357.6297
30
0
11
104.2
21
365.7
31
0
0
LINE
8
CUT
10
67.2703
20
357.6297
30
0
11
60.9772
21
321.9395
31
0
0
ARC
8
CUT
10
59.5
20
322.2
30
0
40
1.5
50
190
51
350
0
LINE
8
CUT
10
58.0228
20
321.9395
30
0
11
53.3975
21
348.1707
31
0
0
ARC
8
CUT
10
48.4735
20
347.3024
30
0
40
5
50
10
51
135
0
LINE
8
CUT
10
44.938
20
350.838
30
0
11
31.098
21
336.998
31
0
0
LINE
8
CUT
10
31.098
20
336.998
30
0
11
31.098
21
320.7
31
0
0
LINE
8
CUT
10
30.4995
20
320.7
30
0
11
30.4995
21
318.7
31
0
0
LINE
8
CUT
10
30.4995
20
318.7
30
0
11
18.9988
21
318.7
31
0
0
ARC
8
CUT
10
18.9987
20
316.7
30
0
40
2
50
89.9971
51
180
0
LINE
8
CUT
10
16.9987
20
316.7
30
0
11
16.9987
21
311.302
31
0
0
LINE
8
CUT
10
16.9987
20
311.302
30
0
11
8.2991
21
311.302
31
0
0
LINE
8
CUT
10
8.2991
20
311.302
30
0
11
0
21
303.002
31
0
0
LINE
8
CREASE
10
104.2
20
104.7
30
0
11
31.098
21
104.7
31
0
0
LINE
8
CREASE
10
104.2
20
104.7
30
0
11
104.2
21
59.7
31
0
0
LINE
8
CUT
10
104.2
20
104.7
30
0
11
85.7352
21
86.2352
31
0
0
LINE
8
CREASE
10
85.7352
20
86.2352
30
0
11
67.2703
21
67.7703
31
0
0
LINE
8
CUT
10
67.2703
20
67.7703
30
0
11
104.2
21
59.7
31
0
0
LINE
8
CUT
10
67.2703
20
67.7703
30
0
11
60.9772
21
103.4605
31
0
0
ARC
8
CUT
10
59.5
20
103.2
30
0
40
1.5
50
10
51
170
0
LINE
8
CUT
10
58.0228
20
103.4605
30
0
11
53.3975
21
77.2293
31
0
0
ARC
8
CUT
10
48.4735
20
78.0976
30
0
40
5
50
225
51
350
0
LINE
8
CUT
10
44.938
20
74.562
30
0
11
31.098
21
88.402
31
0
0
LINE
8
CUT
10
31.098
20
88.402
30
0
11
31.098
21
104.7
31
0
0
LINE
8
CUT
10
30.4995
20
104.7
30
0
11
30.4995
21
106.7
31
0
0
LINE
8
CUT
10
30.4995
20
106.7
30
0
11
18.9988
21
106.7
31
0
0
ARC
8
CUT
10
18.9987
20
108.7
30
0
40
2
50
180
51
270.0029
0
LINE
8
CUT
10
16.9987
20
108.7
30
0
11
16.9987
21
114.098
31
0
0
LINE
8
CUT
10
16.9987
20
114.098
30
0
11
8.2991
21
114.098
31
0
0
LINE
8
CUT
10
8.2991
20
114.098
30
0
11
0
21
122.398
31
0
0
ENDSEC
0
EOF